<svg width="120" height="60" xmlns="http://www.w3.org/2000/svg" preserveAspectRatio="xMidYMid" version="1.1">

 <g>
  <title>Layer 1</title>
  <g stroke="null" id="svg_1" fill="#7289da">
   <path stroke="null" id="svg_2" d="m7.91994,10.05997c-2.3529,1.31194 -4.93954,5.01365 -5.75648,9.66339c-1.03462,5.88982 3.27084,8.38081 3.62397,7.56516c0.41563,-0.95962 -0.77147,-1.28413 -1.01585,-4.34017c-0.31578,-3.94715 1.06287,-8.35763 2.79813,-10.29284c0.32236,-0.35953 0.30708,0.14088 0.30708,1.0665c0,1.65525 -0.06869,16.51438 -0.06869,19.6155c0,4.1962 -0.13022,5.52128 -0.36416,6.83064c-0.23684,1.32688 -0.61783,2.2234 -0.32933,2.56877c0.32256,0.38632 1.69966,-0.53261 2.49686,-2.0135c0.95586,-1.77604 1.29042,-3.90904 1.35059,-6.22541c0.07256,-2.79232 0.06946,-7.22314 0.07256,-9.75044c0.00271,-2.31792 0.02922,-9.10529 -0.03057,-13.1856c-0.0147,-1.00083 -2.1,-2.05084 -3.08412,-1.50201"/>
   <path stroke="null" id="svg_3" d="m91.47129,29.69787c-0.07585,2.18142 -0.43865,3.88663 -0.88892,5.08937c-0.8717,2.32848 -2.68049,3.05141 -3.44847,-0.29566c-0.41853,-1.82446 -0.43807,-4.87175 -0.13719,-7.41785c0.3063,-2.59375 1.16155,-4.55264 2.57774,-4.37597c1.39684,0.17462 2.05066,2.57031 1.89683,7.00011l0,0zm-23.54873,13.53457c-0.01896,3.62471 -0.44755,6.80283 -1.36665,7.72587c-1.30358,1.30885 -3.05567,0.32708 -2.69287,-2.31792c0.32101,-2.34058 1.83917,-4.73087 4.0632,-7.65144c0,0 0.00464,0.66601 -0.00368,2.24348l0,0zm-0.35603,-13.55595c-0.07972,1.98697 -0.46671,3.98295 -0.88892,5.11075c-0.8715,2.32848 -2.69345,3.0563 -3.44847,-0.29566c-0.51624,-2.29036 -0.3926,-5.25446 -0.13719,-7.12219c0.33146,-2.42325 1.13485,-4.67137 2.57774,-4.67137c1.40284,0 2.09458,2.04852 1.89683,6.97847l0,0zm-13.64159,-0.03013c-0.08552,2.10415 -0.39395,3.86319 -0.88892,5.14088c-0.89549,2.31251 -2.66714,3.04574 -3.44847,-0.29566c-0.56327,-2.4096 -0.37151,-5.69486 -0.13719,-7.46961c0.34771,-2.63367 1.21844,-4.50088 2.57774,-4.32394c1.39626,0.18157 2.07504,2.57005 1.89683,6.94834l0,0zm62.51612,2.45776c-0.34132,0 -0.49709,0.46848 -0.62596,1.25657c-0.44697,2.74106 -0.91678,3.35969 -1.52261,3.35969c-0.67684,0 -1.285,-1.35701 -1.44134,-4.07387c-0.12287,-2.13634 -0.10313,-6.06908 0.05399,-9.9812c0.03212,-0.8038 -0.13448,-1.59911 -1.75423,-2.3823c-0.69697,-0.33687 -1.71011,-0.8329 -2.21455,0.78783c-1.42528,4.57892 -1.98294,8.21418 -2.11413,9.69069c-0.00677,0.07649 -0.07721,0.0922 -0.08959,-0.08654c-0.08359,-1.18265 -0.2705,-3.33213 -0.29372,-7.84769c-0.00445,-0.88106 -0.14473,-1.63104 -0.87537,-2.24503c-0.47406,-0.39843 -1.91367,-1.10307 -2.43204,-0.26476c-0.4491,0.68559 -0.96922,2.53065 -1.50965,4.71773c-0.43923,1.77758 -0.74515,2.98007 -0.74515,2.98007c0,0 0.0058,-4.79628 0.01103,-6.61559c0.00232,-0.68636 -0.35139,-0.91506 -0.458,-0.95653c-0.48006,-0.18517 -1.42587,-0.495 -1.82737,-0.495c-0.49535,0 -0.61667,0.36829 -0.61667,0.90528c0,0.07057 -0.07817,6.31478 -0.07817,10.68122c0,0.18981 0.00019,0.39662 0.00077,0.61657c-0.27399,2.0068 -1.16252,4.73112 -2.12883,4.73112c-0.96747,0 -1.42393,-1.13887 -1.42393,-6.3444c0,-3.03647 0.0685,-4.35717 0.10216,-6.55352c0.01954,-1.26507 0.05727,-2.23653 0.05515,-2.45699c-0.00716,-0.67606 -0.88543,-1.01679 -1.29409,-1.14273c-0.4106,-0.12671 -0.7674,-0.17616 -1.04603,-0.15504c-0.39434,0.02988 -0.67336,0.37396 -0.67336,0.84759c0,0.2542 0.00213,0.73684 0.00213,0.73684c-0.50793,-1.06238 -1.32486,-1.80179 -1.86839,-2.01607c-1.46398,-0.57871 -2.99163,-0.06567 -4.14389,2.0802c-0.91581,1.70521 -1.46785,3.63655 -1.68515,6.41136c-0.15886,2.02869 -0.107,4.08571 0.17531,5.82544c-0.34113,1.96302 -0.97444,2.76734 -1.66793,2.76734c-1.00675,0 -1.73662,-2.18708 -1.65187,-5.96992c0.05592,-2.4879 0.42995,-4.23406 0.8388,-6.76007c0.17434,-1.0768 0.0327,-1.64057 -0.32256,-2.1809c-0.32585,-0.49552 -1.02011,-0.74869 -2.01816,-0.43732c-0.7109,0.222 -1.72733,0.46075 -2.65727,0.64412c0,0 0.05611,-0.29798 0.10216,-0.82337c0.24187,-2.75523 -2.00751,-2.53168 -2.72518,-1.65165c-0.4284,0.5254 -0.72,1.14505 -0.83067,2.2592c-0.1755,1.76806 0.90788,2.60199 0.90788,2.60199c-0.35545,2.16596 -1.22676,4.99485 -2.12632,7.04028c-0.4818,1.09586 -0.85041,1.9079 -1.32621,2.7712c-0.00174,-0.32142 -0.0031,-0.64309 -0.00387,-0.96296c-0.01083,-4.55316 0.03464,-8.1364 0.05476,-9.42826c0.01954,-1.26507 0.05766,-2.21078 0.05553,-2.43124c-0.00542,-0.49423 -0.22233,-0.68121 -0.67356,-0.91764c-0.39899,-0.20913 -0.87073,-0.35387 -1.36008,-0.40435c-0.61764,-0.06387 -0.98973,0.3719 -0.98005,0.8875c0.00193,0.09735 0.00193,0.69512 0.00193,0.69512c-0.50792,-1.06238 -1.32486,-1.80179 -1.86839,-2.01607c-1.46398,-0.57845 -2.99163,-0.06567 -4.14389,2.0802c-0.91562,1.70521 -1.51526,4.09808 -1.68515,6.39024c-0.15828,2.13635 -0.12906,3.95153 0.08669,5.4811c-0.23277,1.53137 -0.90207,3.13279 -1.65883,3.13279c-0.96748,0 -1.51797,-1.13887 -1.51797,-6.3444c0,-3.03647 0.0685,-4.35717 0.10216,-6.55326c0.01954,-1.26507 0.05727,-2.23679 0.05515,-2.45699c-0.00716,-0.67606 -0.88543,-1.01679 -1.29409,-1.14299c-0.42762,-0.13161 -0.79681,-0.18003 -1.08028,-0.15195c-0.37403,0.03683 -0.63698,0.48264 -0.63698,0.81514l0,0.7662c-0.50793,-1.06238 -1.32486,-1.80179 -1.86839,-2.01607c-1.46398,-0.57845 -2.98311,-0.05743 -4.14389,2.0802c-0.75695,1.39384 -1.36975,2.93912 -1.68515,6.35985c-0.09114,0.98846 -0.13138,1.91434 -0.12616,2.77944c-0.30185,2.45725 -1.63503,5.28897 -2.72557,5.28897c-0.63815,0 -1.24591,-1.64752 -1.24591,-5.15865c0,-4.67704 0.21749,-11.3359 0.25425,-11.9777c0,0 1.37788,-0.03116 1.64471,-0.03528c0.68729,-0.01005 1.30977,0.01159 2.22519,-0.05074c0.45916,-0.03116 0.90149,-2.22443 0.42762,-2.49588c-0.21478,-0.12285 -1.73275,-0.2305 -2.33452,-0.2475c-0.50599,-0.0152 -1.91463,-0.15401 -1.91463,-0.15401c0,0 0.12635,-4.42001 0.15576,-4.88694c0.02496,-0.38915 -0.35332,-0.58952 -0.57023,-0.71109c-0.52747,-0.29695 -0.9994,-0.43911 -1.5588,-0.59261c-0.77282,-0.21222 -1.12343,-0.00464 -1.19193,0.86355c-0.10313,1.31761 -0.15654,5.17694 -0.15654,5.17694c-0.56713,0 -2.5044,-0.14757 -3.07173,-0.14757c-0.52708,0 -1.09596,3.01715 -0.36725,3.05424c0.83841,0.04327 2.2995,0.08087 3.26813,0.1195c0,0 -0.04315,6.76883 -0.04315,8.85882c0,0.22226 0.00077,0.43628 0.00174,0.64412c-0.53308,3.69811 -2.41075,5.69589 -2.41075,5.69589c0.40324,-2.44669 -0.42047,-4.28402 -1.90418,-5.83935c-0.54662,-0.57304 -1.62575,-1.65808 -2.83316,-2.84717c0,0 0.69929,-0.91712 1.31944,-2.76296c0.43943,-1.30756 0.45839,-2.80339 -0.62015,-3.13331c-1.78209,-0.54548 -3.25149,1.19656 -3.68976,3.0563c-0.33958,1.44097 -0.15847,2.50979 0.50676,3.62033c0.04857,0.08113 0.1012,0.16406 0.15557,0.2475c-0.40228,1.03199 -0.9549,2.42145 -1.42296,3.49902c-1.29913,2.99166 -2.28053,5.35799 -3.0222,5.35799c-0.59287,0 -0.58494,-2.40265 -0.58494,-4.65206c0,-1.93907 0.10758,-4.85449 0.19349,-7.87293c0.02844,-0.99825 -0.34655,-1.56691 -0.97522,-2.082c-0.38196,-0.31292 -1.19715,-0.9282 -1.66928,-0.9282c-0.70664,0 -2.7455,0.128 -4.67194,7.54508c-0.24284,0.93489 -0.7198,2.6383 -0.7198,2.6383l0.04121,-8.91934c0,-0.20913 -0.08378,-0.4113 -0.27534,-0.5496c-0.32469,-0.23463 -1.19174,-0.71444 -1.96262,-0.71444c-0.36725,0 -0.55069,0.22741 -0.55069,0.6807l-0.06714,13.95437c0,1.06058 0.0207,2.29731 0.09945,2.83816c0.07856,0.54162 0.20569,0.98228 0.363,1.24446c0.15731,0.26167 0.3392,0.46126 0.63892,0.54368c0.27902,0.07649 1.80724,0.33764 1.88658,-0.43963c0.0952,-0.93154 0.09888,-1.93907 0.9013,-5.69667c1.2492,-5.85016 2.87766,-8.70455 3.64351,-9.71825c0.1339,-0.17719 0.28676,-0.18775 0.27941,0.10225c-0.0327,1.28258 -0.14764,4.48774 -0.22504,7.21027c-0.20743,7.2865 0.78849,8.63707 2.21165,8.63707c1.0888,0 2.6236,-1.43994 4.26889,-5.08499c1.02572,-2.27156 2.02164,-4.49882 2.73718,-6.1041c0.49864,0.61451 1.05822,1.27562 1.61743,1.98208c1.29951,1.6416 1.72617,3.20156 1.44309,4.68142c-0.21652,1.1314 -1.03191,2.29731 -2.48312,1.16411c-0.42298,-0.33069 -0.60351,-0.58617 -1.02881,-0.95884c-0.22852,-0.20011 -0.57739,-0.26012 -0.78656,-0.05022c-0.54333,0.54523 -0.85409,1.2388 -1.03152,2.09746c-0.1726,0.83548 0.45607,1.27717 1.10776,1.66349c0.56114,0.33249 1.76719,0.63382 2.53633,0.66807c2.99685,0.13341 5.39754,-1.92593 7.06876,-7.23808c0.29914,4.58793 1.57234,7.18374 3.78438,7.18374c1.47888,0 2.96164,-2.5443 3.61004,-5.04739c0.18614,1.0204 0.46168,1.90765 0.81752,2.65813c1.7045,3.59457 5.01113,2.8209 6.6721,-0.23154c0.51353,-0.94313 0.59171,-1.28206 0.59171,-1.28206c0.24225,2.8822 1.98603,3.88921 2.98447,3.88921c1.11821,0 2.27279,-0.70362 3.08199,-3.12842c0.09481,0.26321 0.19833,0.51458 0.31133,0.75281c1.7045,3.59457 5.01114,2.8209 6.6721,-0.23154c0.07837,-0.14319 0.14628,-0.273 0.20569,-0.38967l0.04876,1.89322c0,0 -0.94755,1.1569 -1.52919,1.8667c-2.56323,3.12687 -4.51037,5.49861 -4.65355,8.26054c-0.18227,3.52169 1.96223,4.83054 3.5872,5.00206c1.72249,0.18209 3.20021,-1.08556 4.10713,-2.85954c0.79817,-1.5615 1.3206,-4.92222 1.28229,-8.24148c-0.01528,-1.3292 -0.04044,-3.01921 -0.06018,-4.83079c0.89975,-1.39075 1.91347,-3.14876 2.84689,-5.20604c1.0172,-2.2422 2.10736,-5.25343 2.66559,-7.59684c0,0 0.94716,0.01082 1.95798,-0.07726c0.32333,-0.02807 0.41621,0.05975 0.35642,0.37524c-0.07217,0.38117 -1.27707,6.56691 -0.17744,10.68766c0.7527,2.8209 2.44945,3.72849 3.45543,3.72849c1.17761,0 2.30414,-1.18368 2.90784,-2.94144c0.07275,0.19599 0.1488,0.38555 0.23181,0.56068c1.7045,3.59457 4.99952,2.81627 6.6721,-0.23154c0.37751,-0.68765 0.59171,-1.28206 0.59171,-1.28206c0.35893,2.9829 2.10174,3.9044 3.09998,3.9044c1.03984,0 2.02667,-0.56737 2.82735,-3.08901c0.03348,1.11028 0.0861,2.01813 0.16931,2.30427c0.05069,0.17513 0.34616,0.39482 0.56113,0.50093c0.95122,0.46951 1.92141,0.2475 2.28034,0.15092c0.24864,-0.06696 0.44252,-0.33249 0.46903,-1.01808c0.06966,-1.80025 0.0269,-4.82487 0.43691,-7.07299c0.68826,-3.77254 1.33028,-5.23592 1.63484,-5.96039c0.17047,-0.40589 0.3628,-0.47285 0.36977,-0.04327c0.01432,0.86922 0.04683,3.42176 0.31346,6.85125c0.19582,2.52215 0.45742,4.01309 0.65847,4.48491c0.57371,1.34929 1.28229,1.41316 1.85929,1.41316c0.36706,0 1.13465,-0.13495 1.06596,-0.99361c-0.03348,-0.41851 0.02515,-3.00505 0.70374,-6.7217c0.4431,-2.42712 1.18187,-4.61987 1.44831,-5.42186c0.09829,-0.29566 0.14396,-0.06258 0.14241,-0.01726c-0.05611,1.67147 -0.18208,7.13867 0.32952,10.12878c0.69349,4.05069 2.69964,4.50397 3.39874,4.50397c1.49243,0 2.71299,-1.51102 3.12417,-5.48703c0.09907,-0.95678 -0.0476,-1.69568 -0.48703,-1.69568l0,0z"/>
  </g>
 </g>
</svg>