<svg width="49" height="48" viewBox="0 0 49 48" fill="none" xmlns="http://www.w3.org/2000/svg">
<g clip-path="url(#clip0_2403_2577)">
<path d="M24.666 0C11.4113 0 0.666016 10.7453 0.666016 24C0.666016 35.255 8.41514 44.6995 18.8686 47.2934V31.3344H13.9198V24H18.8686V20.8397C18.8686 12.671 22.5655 8.8848 30.5854 8.8848C32.106 8.8848 34.7297 9.18336 35.803 9.48096V16.129C35.2366 16.0694 34.2526 16.0397 33.0305 16.0397C29.0955 16.0397 27.5748 17.5306 27.5748 21.4061V24H35.4142L34.0673 31.3344H27.5748V47.8243C39.4587 46.3891 48.667 36.2707 48.667 24C48.666 10.7453 37.9207 0 24.666 0Z" fill="#FFA100"/>
</g>
<defs>
<clipPath id="clip0_2403_2577">
<rect x="0.666016" width="48" height="48" rx="10" fill="white"/>
</clipPath>
</defs>
</svg>
