<svg width="49" height="48" viewBox="0 0 49 48" fill="none" xmlns="http://www.w3.org/2000/svg">
<g clip-path="url(#clip0_2403_2576)">
<path d="M24.334 4.32187C30.7465 4.32187 31.5059 4.35 34.0277 4.4625C36.3715 4.56562 37.6371 4.95938 38.4809 5.2875C39.5965 5.71875 40.4027 6.24375 41.2371 7.07812C42.0809 7.92188 42.5965 8.71875 43.0277 9.83438C43.3559 10.6781 43.7496 11.9531 43.8527 14.2875C43.9652 16.8187 43.9934 17.5781 43.9934 23.9813C43.9934 30.3938 43.9652 31.1531 43.8527 33.675C43.7496 36.0188 43.3559 37.2844 43.0277 38.1281C42.5965 39.2438 42.0715 40.05 41.2371 40.8844C40.3934 41.7281 39.5965 42.2438 38.4809 42.675C37.6371 43.0031 36.3621 43.3969 34.0277 43.5C31.4965 43.6125 30.7371 43.6406 24.334 43.6406C17.9215 43.6406 17.1621 43.6125 14.6402 43.5C12.2965 43.3969 11.0309 43.0031 10.1871 42.675C9.07148 42.2438 8.26523 41.7188 7.43086 40.8844C6.58711 40.0406 6.07148 39.2438 5.64023 38.1281C5.31211 37.2844 4.91836 36.0094 4.81523 33.675C4.70273 31.1438 4.67461 30.3844 4.67461 23.9813C4.67461 17.5688 4.70273 16.8094 4.81523 14.2875C4.91836 11.9437 5.31211 10.6781 5.64023 9.83438C6.07148 8.71875 6.59648 7.9125 7.43086 7.07812C8.27461 6.23438 9.07148 5.71875 10.1871 5.2875C11.0309 4.95938 12.3059 4.56562 14.6402 4.4625C17.1621 4.35 17.9215 4.32187 24.334 4.32187ZM24.334 0C17.8184 0 17.0027 0.028125 14.4434 0.140625C11.8934 0.253125 10.1402 0.665625 8.62148 1.25625C7.03711 1.875 5.69649 2.69062 4.36523 4.03125C3.02461 5.3625 2.20898 6.70313 1.59023 8.27813C0.999609 9.80625 0.587109 11.55 0.474609 14.1C0.362109 16.6687 0.333984 17.4844 0.333984 24C0.333984 30.5156 0.362109 31.3312 0.474609 33.8906C0.587109 36.4406 0.999609 38.1938 1.59023 39.7125C2.20898 41.2969 3.02461 42.6375 4.36523 43.9688C5.69649 45.3 7.03711 46.125 8.61211 46.7344C10.1402 47.325 11.884 47.7375 14.434 47.85C16.9934 47.9625 17.809 47.9906 24.3246 47.9906C30.8402 47.9906 31.6559 47.9625 34.2152 47.85C36.7652 47.7375 38.5184 47.325 40.0371 46.7344C41.6121 46.125 42.9527 45.3 44.284 43.9688C45.6152 42.6375 46.4402 41.2969 47.0496 39.7219C47.6402 38.1938 48.0527 36.45 48.1652 33.9C48.2777 31.3406 48.3059 30.525 48.3059 24.0094C48.3059 17.4938 48.2777 16.6781 48.1652 14.1188C48.0527 11.5688 47.6402 9.81563 47.0496 8.29688C46.459 6.70312 45.6434 5.3625 44.3027 4.03125C42.9715 2.7 41.6309 1.875 40.0559 1.26562C38.5277 0.675 36.784 0.2625 34.234 0.15C31.6652 0.028125 30.8496 0 24.334 0Z" fill="#FFA100"/>
<path d="M24.334 11.6719C17.5277 11.6719 12.0059 17.1938 12.0059 24C12.0059 30.8062 17.5277 36.3281 24.334 36.3281C31.1402 36.3281 36.6621 30.8062 36.6621 24C36.6621 17.1938 31.1402 11.6719 24.334 11.6719ZM24.334 31.9969C19.9184 31.9969 16.3371 28.4156 16.3371 24C16.3371 19.5844 19.9184 16.0031 24.334 16.0031C28.7496 16.0031 32.3309 19.5844 32.3309 24C32.3309 28.4156 28.7496 31.9969 24.334 31.9969Z" fill="#FFA100"/>
<path d="M40.0277 11.1843C40.0277 12.778 38.734 14.0624 37.1496 14.0624C35.5559 14.0624 34.2715 12.7687 34.2715 11.1843C34.2715 9.59053 35.5652 8.30615 37.1496 8.30615C38.734 8.30615 40.0277 9.5999 40.0277 11.1843Z" fill="#FFA100"/>
</g>
<defs>
<clipPath id="clip0_2403_2576">
<rect width="48" height="48" fill="white" transform="translate(0.333984)"/>
</clipPath>
</defs>
</svg>
