<svg width="9" height="17" viewBox="0 0 9 17" fill="none" xmlns="http://www.w3.org/2000/svg">
<path d="M8.65584 16.1478C8.87621 15.9222 9 15.6163 9 15.2974C9 14.9784 8.87621 14.6725 8.65584 14.447L2.83731 8.49274L8.65584 2.53852C8.86996 2.31166 8.98844 2.00781 8.98576 1.69242C8.98308 1.37703 8.85946 1.07533 8.64152 0.852312C8.42358 0.62929 8.12876 0.502786 7.82056 0.500046C7.51236 0.497305 7.21544 0.618547 6.99374 0.83766L0.344159 7.64231C0.123794 7.86788 0 8.17378 0 8.49274C0 8.8117 0.123794 9.1176 0.344159 9.34317L6.99374 16.1478C7.21417 16.3733 7.5131 16.5 7.82479 16.5C8.13648 16.5 8.43541 16.3733 8.65584 16.1478Z" fill="#121212"/>
</svg>
