<svg width="48" height="48" viewBox="0 0 48 48" fill="none" xmlns="http://www.w3.org/2000/svg">
<path d="M30.4646 35.4717C30.8074 35.1334 31 34.6745 31 34.1961C31 33.7176 30.8074 33.2588 30.4646 32.9204L21.4136 23.9891L30.4646 15.0578C30.7977 14.7175 30.982 14.2617 30.9779 13.7886C30.9737 13.3155 30.7814 12.863 30.4424 12.5285C30.1033 12.1939 29.6447 12.0042 29.1653 12.0001C28.6859 11.996 28.224 12.1778 27.8792 12.5065L17.5354 22.7135C17.1926 23.0518 17 23.5107 17 23.9891C17 24.4675 17.1926 24.9264 17.5354 25.2648L27.8792 35.4717C28.222 35.81 28.687 36 29.1719 36C29.6567 36 30.1217 35.81 30.4646 35.4717Z" fill="#FFA100"/>
</svg>
