<svg width="122" height="124" viewBox="0 0 122 124" fill="none" xmlns="http://www.w3.org/2000/svg">
<g filter="url(#filter0_d_3250_3550)">
<path d="M0 25C0 11.1929 11.1929 0 25 0H95C108.807 0 120 11.1929 120 25V95C120 108.807 108.807 120 95 120H25C11.1929 120 0 108.807 0 95V25Z" fill="#FFA100" shape-rendering="crispEdges"/>
<path d="M25 2H95C107.703 2 118 12.2975 118 25V95C118 107.703 107.703 118 95 118H25C12.2975 118 2 107.703 2 95V25C2 12.2975 12.2974 2 25 2Z" stroke="#121212" stroke-width="4" shape-rendering="crispEdges"/>
<path d="M87.5 43.75H78.75V35C78.75 33.3424 78.0915 31.7527 76.9194 30.5806C75.7473 29.4085 74.1576 28.75 72.5 28.75H32.5C30.8424 28.75 29.2527 29.4085 28.0806 30.5806C26.9085 31.7527 26.25 33.3424 26.25 35V75C26.2503 75.7077 26.4509 76.4009 26.8286 76.9994C27.2062 77.598 27.7455 78.0774 28.3842 78.3824C29.0228 78.6873 29.7347 78.8053 30.4376 78.7227C31.1405 78.6401 31.8057 78.3603 32.3563 77.9156L41.25 70.7281V77.5C41.25 79.1576 41.9085 80.7473 43.0806 81.9194C44.2527 83.0915 45.8424 83.75 47.5 83.75H76.3031L87.6438 92.9156C88.1943 93.3603 88.8595 93.6401 89.5624 93.7227C90.2653 93.8053 90.9772 93.6873 91.6158 93.3824C92.2545 93.0774 92.7938 92.598 93.1714 91.9994C93.5491 91.4009 93.7497 90.7077 93.75 90V50C93.75 48.3424 93.0915 46.7527 91.9194 45.5806C90.7473 44.4085 89.1576 43.75 87.5 43.75ZM33.75 67.1469V36.25H71.25V61.25H42.3688C41.5067 61.2476 40.6702 61.5423 40 62.0844L33.75 67.1469ZM86.25 82.1469L80 77.0844C79.3331 76.545 78.5015 76.2505 77.6438 76.25H48.75V68.75H72.5C74.1576 68.75 75.7473 68.0915 76.9194 66.9194C78.0915 65.7473 78.75 64.1576 78.75 62.5V51.25H86.25V82.1469Z" fill="#121212"/>
</g>
<defs>
<filter id="filter0_d_3250_3550" x="0" y="0" width="122" height="124" filterUnits="userSpaceOnUse" color-interpolation-filters="sRGB">
<feFlood flood-opacity="0" result="BackgroundImageFix"/>
<feColorMatrix in="SourceAlpha" type="matrix" values="0 0 0 0 0 0 0 0 0 0 0 0 0 0 0 0 0 0 127 0" result="hardAlpha"/>
<feOffset dx="2" dy="4"/>
<feComposite in2="hardAlpha" operator="out"/>
<feColorMatrix type="matrix" values="0 0 0 0 0.0705882 0 0 0 0 0.0705882 0 0 0 0 0.0705882 0 0 0 1 0"/>
<feBlend mode="normal" in2="BackgroundImageFix" result="effect1_dropShadow_3250_3550"/>
<feBlend mode="normal" in="SourceGraphic" in2="effect1_dropShadow_3250_3550" result="shape"/>
</filter>
</defs>
</svg>
