<svg width="80" height="80" viewBox="0 0 80 80" fill="none" xmlns="http://www.w3.org/2000/svg">
<path d="M67.5 23.75H58.75V15C58.75 13.3424 58.0915 11.7527 56.9194 10.5806C55.7473 9.40848 54.1576 8.75 52.5 8.75H12.5C10.8424 8.75 9.25269 9.40848 8.08058 10.5806C6.90848 11.7527 6.25 13.3424 6.25 15V55C6.25031 55.7077 6.45089 56.4009 6.82855 56.9994C7.20621 57.598 7.74553 58.0774 8.38419 58.3824C9.02284 58.6873 9.73475 58.8053 10.4376 58.7227C11.1405 58.6401 11.8057 58.3603 12.3563 57.9156L21.25 50.7281V57.5C21.25 59.1576 21.9085 60.7473 23.0806 61.9194C24.2527 63.0915 25.8424 63.75 27.5 63.75H56.3031L67.6438 72.9156C68.1943 73.3603 68.8595 73.6401 69.5624 73.7227C70.2653 73.8053 70.9772 73.6873 71.6158 73.3824C72.2545 73.0774 72.7938 72.598 73.1714 71.9994C73.5491 71.4009 73.7497 70.7077 73.75 70V30C73.75 28.3424 73.0915 26.7527 71.9194 25.5806C70.7473 24.4085 69.1576 23.75 67.5 23.75ZM13.75 47.1469V16.25H51.25V41.25H22.3688C21.5067 41.2476 20.6702 41.5423 20 42.0844L13.75 47.1469ZM66.25 62.1469L60 57.0844C59.3331 56.545 58.5015 56.2505 57.6438 56.25H28.75V48.75H52.5C54.1576 48.75 55.7473 48.0915 56.9194 46.9194C58.0915 45.7473 58.75 44.1576 58.75 42.5V31.25H66.25V62.1469Z" fill="#121212"/>
</svg>
