<svg width="20" height="12" viewBox="0 0 20 12" fill="none" xmlns="http://www.w3.org/2000/svg">
<path d="M19.5598 0.458879C19.2778 0.165059 18.8954 0 18.4967 0C18.098 0 17.7157 0.165059 17.4337 0.458879L9.99092 8.21692L2.54815 0.458879C2.26457 0.173387 1.88476 0.0154133 1.49052 0.0189838C1.09629 0.0225554 0.719168 0.187384 0.44039 0.47797C0.161612 0.768557 0.00348282 1.16165 5.72205e-05 1.57259C-0.00336838 1.98352 0.148184 2.37942 0.422075 2.67501L8.92789 11.5411C9.20985 11.8349 9.59223 12 9.99092 12C10.3896 12 10.772 11.8349 11.054 11.5411L19.5598 2.67501C19.8416 2.3811 20 1.98253 20 1.56695C20 1.15136 19.8416 0.752788 19.5598 0.458879Z" fill="#FFA100"/>
</svg>
