<svg width="10" height="20" viewBox="0 0 10 20" fill="none" xmlns="http://www.w3.org/2000/svg">
<path d="M9.6176 19.5598C9.86245 19.2778 10 18.8954 10 18.4967C10 18.098 9.86245 17.7157 9.6176 17.4337L3.15257 9.99092L9.6176 2.54815C9.85551 2.26457 9.98716 1.88476 9.98418 1.49052C9.9812 1.09629 9.84385 0.719168 9.60169 0.44039C9.35954 0.161613 9.03196 0.00348282 8.68951 5.72205e-05C8.34706 -0.00336838 8.01715 0.148186 7.77082 0.422075L0.382399 8.92789C0.137549 9.20985 0 9.59222 0 9.99092C0 10.3896 0.137549 10.772 0.382399 11.054L7.77082 19.5598C8.01575 19.8416 8.34789 20 8.69421 20C9.04053 20 9.37268 19.8416 9.6176 19.5598Z" fill="#FFA101"/>
</svg>
