<svg width="24" height="18" viewBox="0 0 24 18" fill="none" xmlns="http://www.w3.org/2000/svg">
<path d="M23.5755 2.6056L8.8314 17.3497C8.70298 17.4786 8.55039 17.5808 8.38237 17.6506C8.21435 17.7203 8.03422 17.7563 7.85229 17.7563C7.67037 17.7563 7.49023 17.7203 7.32222 17.6506C7.1542 17.5808 7.00161 17.4786 6.87319 17.3497L0.422647 10.8992C0.294069 10.7706 0.192076 10.6179 0.122491 10.4499C0.052905 10.2819 0.0170898 10.1019 0.0170898 9.92006C0.0170898 9.73822 0.052905 9.55816 0.122491 9.39017C0.192076 9.22218 0.294069 9.06953 0.422647 8.94096C0.551224 8.81238 0.703867 8.71038 0.871862 8.6408C1.03986 8.57121 1.21991 8.5354 1.40175 8.5354C1.58358 8.5354 1.76364 8.57121 1.93163 8.6408C2.09963 8.71038 2.25227 8.81238 2.38085 8.94096L7.85345 14.4136L21.6196 0.649697C21.8793 0.390024 22.2315 0.244141 22.5987 0.244141C22.9659 0.244141 23.3181 0.390024 23.5778 0.649697C23.8375 0.909371 23.9834 1.26156 23.9834 1.6288C23.9834 1.99603 23.8375 2.34823 23.5778 2.6079L23.5755 2.6056Z" fill="#121212"/>
</svg>
