<?xml version="1.0" encoding="UTF-8" standalone="no"?>
<!DOCTYPE svg PUBLIC "-//W3C//DTD SVG 1.1//EN" "http://www.w3.org/Graphics/SVG/1.1/DTD/svg11.dtd">
<svg width="100%" height="100%" viewBox="0 0 122 107" version="1.1" xmlns="http://www.w3.org/2000/svg" xmlns:xlink="http://www.w3.org/1999/xlink" xml:space="preserve" xmlns:serif="http://www.serif.com/" style="fill-rule:evenodd;clip-rule:evenodd;stroke-linejoin:round;stroke-miterlimit:2;">
    <g transform="matrix(1,0,0,1,-922.794,-811.424)">
        <path d="M976.38,865C976.38,865.781 976.302,866.557 976.151,867.323C976,868.094 975.771,868.839 975.474,869.557C975.177,870.281 974.807,870.969 974.375,871.615C973.938,872.266 973.448,872.87 972.896,873.422C972.339,873.974 971.74,874.469 971.089,874.901C970.438,875.339 969.755,875.703 969.031,876C968.307,876.302 967.563,876.526 966.797,876.677C966.031,876.833 965.255,876.906 964.474,876.906C963.693,876.906 962.917,876.833 962.151,876.677C961.385,876.526 960.641,876.302 959.917,876C959.198,875.703 958.51,875.339 957.859,874.901C957.208,874.469 956.609,873.974 956.057,873.422C955.505,872.87 955.01,872.266 954.573,871.615C954.141,870.969 953.776,870.281 953.474,869.557C953.177,868.839 952.948,868.094 952.797,867.323C952.646,866.557 952.568,865.781 952.568,865C952.568,864.219 952.646,863.448 952.797,862.677C952.948,861.911 953.177,861.167 953.474,860.448C953.776,859.724 954.141,859.036 954.573,858.385C955.01,857.74 955.505,857.135 956.057,856.583C956.609,856.031 957.208,855.536 957.859,855.104C958.51,854.667 959.198,854.302 959.917,854C960.641,853.703 961.385,853.479 962.151,853.323C962.917,853.172 963.693,853.094 964.474,853.094C965.255,853.094 966.031,853.172 966.797,853.323C967.563,853.479 968.307,853.703 969.031,854C969.755,854.302 970.438,854.667 971.089,855.104C971.74,855.536 972.339,856.031 972.896,856.583C973.448,857.135 973.938,857.74 974.375,858.385C974.807,859.036 975.177,859.724 975.474,860.448C975.771,861.167 976,861.911 976.151,862.677C976.302,863.448 976.38,864.219 976.38,865Z" style="fill:rgb(98,222,54);fill-rule:nonzero;"/>
    </g>
    <g transform="matrix(1,0,0,1,-922.794,-811.424)">
        <path d="M1012.1,865C1012.1,865.781 1012.02,866.557 1011.87,867.323C1011.72,868.094 1011.49,868.839 1011.19,869.557C1010.9,870.281 1010.53,870.969 1010.09,871.615C1009.66,872.266 1009.17,872.87 1008.61,873.422C1008.06,873.974 1007.46,874.469 1006.81,874.901C1006.16,875.339 1005.47,875.703 1004.75,876C1004.03,876.302 1003.28,876.526 1002.52,876.677C1001.75,876.833 1000.97,876.906 1000.19,876.906C999.411,876.906 998.635,876.833 997.87,876.677C997.104,876.526 996.359,876.302 995.635,876C994.917,875.703 994.229,875.339 993.578,874.901C992.927,874.469 992.328,873.974 991.776,873.422C991.219,872.87 990.729,872.266 990.292,871.615C989.859,870.969 989.49,870.281 989.193,869.557C988.896,868.839 988.667,868.094 988.516,867.323C988.365,866.557 988.286,865.781 988.286,865C988.286,864.219 988.365,863.448 988.516,862.677C988.667,861.911 988.896,861.167 989.193,860.448C989.49,859.724 989.859,859.036 990.292,858.385C990.729,857.74 991.219,857.135 991.776,856.583C992.328,856.031 992.927,855.536 993.578,855.104C994.229,854.667 994.917,854.302 995.635,854C996.359,853.703 997.104,853.479 997.87,853.323C998.635,853.172 999.411,853.094 1000.19,853.094C1000.97,853.094 1001.75,853.172 1002.52,853.323C1003.28,853.479 1004.03,853.703 1004.75,854C1005.47,854.302 1006.16,854.667 1006.81,855.104C1007.46,855.536 1008.06,856.031 1008.61,856.583C1009.17,857.135 1009.66,857.74 1010.09,858.385C1010.53,859.036 1010.9,859.724 1011.19,860.448C1011.49,861.167 1011.72,861.911 1011.87,862.677C1012.02,863.448 1012.1,864.219 1012.1,865Z" style="fill:rgb(98,222,54);fill-rule:nonzero;"/>
    </g>
    <g transform="matrix(1,0,0,1,-922.794,-811.424)">
        <path d="M1009.12,844.167C1008.57,844.167 1008.02,844.089 1007.48,843.938C987.734,838.281 976.927,838.281 957.182,843.938C956.807,844.047 956.422,844.115 956.031,844.146C955.646,844.177 955.255,844.172 954.865,844.13C954.479,844.083 954.099,844 953.724,843.88C953.354,843.76 952.995,843.609 952.656,843.417C952.313,843.229 951.995,843.005 951.693,842.755C951.396,842.5 951.125,842.224 950.885,841.917C950.641,841.609 950.427,841.281 950.25,840.938C950.073,840.589 949.927,840.224 949.823,839.849C949.714,839.474 949.646,839.094 949.609,838.703C949.578,838.313 949.583,837.922 949.63,837.536C949.677,837.146 949.755,836.766 949.875,836.396C949.995,836.021 950.151,835.667 950.339,835.323C950.531,834.979 950.75,834.661 951.005,834.365C951.255,834.068 951.536,833.797 951.844,833.552C952.146,833.307 952.474,833.099 952.823,832.917C953.172,832.74 953.531,832.599 953.906,832.49C975.688,826.26 988.969,826.26 1010.76,832.49C1011.45,832.688 1012.08,833 1012.66,833.427C1013.24,833.854 1013.72,834.365 1014.12,834.969C1014.5,835.568 1014.78,836.219 1014.94,836.922C1015.09,837.625 1015.12,838.328 1015.02,839.042C1014.92,839.75 1014.7,840.422 1014.35,841.052C1014.02,841.682 1013.57,842.234 1013.03,842.708C1012.49,843.177 1011.88,843.536 1011.21,843.792C1010.54,844.042 1009.84,844.167 1009.12,844.167Z" style="fill:rgb(98,222,54);fill-rule:nonzero;"/>
    </g>
    <g transform="matrix(1,0,0,1,-922.794,-811.424)">
        <path d="M982.333,902.234C971.646,902.146 961.177,900.573 950.932,897.516C950.557,897.406 950.198,897.266 949.849,897.083C949.5,896.906 949.172,896.698 948.87,896.453C948.563,896.208 948.281,895.938 948.031,895.641C947.776,895.344 947.557,895.021 947.365,894.682C947.177,894.339 947.021,893.984 946.901,893.609C946.781,893.24 946.703,892.859 946.656,892.469C946.615,892.078 946.604,891.693 946.635,891.302C946.672,890.911 946.74,890.531 946.849,890.156C946.953,889.776 947.099,889.417 947.276,889.068C947.453,888.719 947.667,888.396 947.911,888.089C948.151,887.781 948.422,887.5 948.724,887.25C949.021,886.995 949.339,886.776 949.682,886.583C950.021,886.396 950.38,886.24 950.75,886.12C951.125,886.005 951.505,885.922 951.896,885.875C952.281,885.833 952.672,885.828 953.063,885.859C953.448,885.891 953.833,885.958 954.208,886.068C958.766,887.469 963.401,888.521 968.115,889.229C972.828,889.938 977.568,890.292 982.339,890.292C987.104,890.292 991.844,889.938 996.557,889.229C1001.27,888.521 1005.91,887.469 1010.46,886.068C1010.84,885.958 1011.22,885.891 1011.62,885.859C1012,885.828 1012.39,885.833 1012.78,885.875C1013.17,885.922 1013.55,886.005 1013.92,886.125C1014.29,886.245 1014.65,886.396 1014.99,886.589C1015.33,886.776 1015.65,887 1015.95,887.25C1016.25,887.505 1016.52,887.781 1016.76,888.089C1017,888.396 1017.21,888.724 1017.4,889.068C1017.57,889.417 1017.72,889.781 1017.82,890.156C1017.93,890.531 1018,890.911 1018.03,891.302C1018.07,891.693 1018.06,892.078 1018.02,892.469C1017.97,892.859 1017.89,893.24 1017.77,893.609C1017.65,893.979 1017.5,894.339 1017.31,894.682C1017.12,895.021 1016.9,895.344 1016.64,895.641C1016.39,895.938 1016.11,896.208 1015.8,896.453C1015.5,896.698 1015.17,896.906 1014.82,897.083C1014.47,897.266 1014.12,897.406 1013.74,897.516C1003.5,900.573 993.026,902.146 982.333,902.234Z" style="fill:rgb(98,222,54);fill-rule:nonzero;"/>
    </g>
    <g transform="matrix(1,0,0,1,-922.794,-811.424)">
        <clipPath id="_clip1">
            <rect x="988" y="811.125" width="56" height="107"/>
        </clipPath>
        <g clip-path="url(#_clip1)">
            <path d="M1015.08,918.578C1007.41,918.578 997.219,902.24 997.219,894.766C997.219,894.375 997.255,893.99 997.333,893.604C997.406,893.224 997.521,892.849 997.672,892.49C997.818,892.13 998,891.786 998.219,891.458C998.438,891.135 998.682,890.833 998.958,890.557C999.234,890.281 999.536,890.036 999.865,889.818C1000.19,889.599 1000.53,889.417 1000.89,889.266C1001.25,889.12 1001.62,889.005 1002.01,888.927C1002.39,888.854 1002.78,888.813 1003.17,888.813C1003.56,888.813 1003.95,888.854 1004.33,888.927C1004.71,889.005 1005.09,889.12 1005.45,889.266C1005.81,889.417 1006.15,889.599 1006.48,889.818C1006.8,890.036 1007.1,890.281 1007.38,890.557C1007.66,890.833 1007.9,891.135 1008.12,891.458C1008.34,891.786 1008.52,892.13 1008.67,892.49C1008.82,892.849 1008.93,893.224 1009.01,893.604C1009.08,893.99 1009.12,894.375 1009.12,894.766C1009.12,897.25 1013.62,904.25 1016.23,906.568C1021.32,905.651 1027.09,898.99 1030.47,892.339C1033.79,883.604 1032.52,860.661 1022.02,830.161C1016.45,826.807 1010.45,824.708 1004.01,823.87L999.766,834.474C999.62,834.833 999.443,835.182 999.229,835.505C999.016,835.833 998.771,836.141 998.5,836.417C998.229,836.698 997.927,836.948 997.609,837.172C997.286,837.391 996.943,837.578 996.583,837.734C996.224,837.885 995.854,838.005 995.474,838.083C995.089,838.167 994.703,838.208 994.313,838.214C993.922,838.219 993.531,838.182 993.151,838.115C992.766,838.042 992.391,837.932 992.026,837.786C991.667,837.641 991.318,837.464 990.995,837.25C990.667,837.036 990.359,836.792 990.083,836.521C989.802,836.25 989.552,835.948 989.328,835.625C989.109,835.307 988.922,834.964 988.766,834.604C988.615,834.245 988.495,833.875 988.417,833.49C988.333,833.109 988.292,832.724 988.286,832.333C988.281,831.943 988.318,831.552 988.385,831.172C988.458,830.786 988.568,830.411 988.714,830.047L994.667,815.167C994.906,814.563 995.24,814.016 995.656,813.521C996.078,813.026 996.568,812.609 997.12,812.276C997.677,811.943 998.271,811.703 998.906,811.563C999.542,811.422 1000.18,811.391 1000.82,811.458C1006.1,811.802 1011.25,812.818 1016.25,814.505C1021.27,816.198 1025.97,818.5 1030.38,821.422C1031.43,822.151 1032.17,823.12 1032.59,824.323C1043.39,854.906 1046.86,883.427 1041.44,896.979C1041.38,897.13 1041.31,897.276 1041.23,897.432C1036.12,907.656 1026.56,918.578 1015.08,918.578Z" style="fill:rgb(98,222,54);fill-rule:nonzero;"/>
        </g>
    </g>
    <g transform="matrix(1,0,0,1,-922.794,-811.424)">
        <clipPath id="_clip2">
            <rect x="922.667" y="811.125" width="54.667" height="107"/>
        </clipPath>
        <g clip-path="url(#_clip2)">
            <path d="M950.594,918.578C939.474,918.578 930.271,907.604 925.375,897.328C925.307,897.182 925.245,897.031 925.188,896.885C920.042,883.391 923.349,854.943 933.609,824.411C934.01,823.219 934.719,822.245 935.734,821.505C939.87,818.573 944.323,816.255 949.089,814.552C953.859,812.844 958.771,811.818 963.828,811.458C964.474,811.391 965.115,811.422 965.75,811.563C966.385,811.703 966.979,811.938 967.536,812.271C968.094,812.609 968.583,813.021 969.005,813.516C969.427,814.01 969.76,814.563 970,815.167L975.953,830.047C976.099,830.411 976.208,830.786 976.281,831.172C976.354,831.552 976.385,831.943 976.38,832.333C976.375,832.724 976.333,833.109 976.25,833.49C976.172,833.875 976.052,834.245 975.901,834.604C975.745,834.964 975.557,835.307 975.339,835.625C975.115,835.948 974.865,836.25 974.589,836.521C974.307,836.792 974,837.036 973.677,837.25C973.349,837.464 973,837.641 972.641,837.786C972.276,837.932 971.901,838.042 971.516,838.115C971.135,838.182 970.745,838.219 970.354,838.214C969.964,838.208 969.578,838.167 969.198,838.083C968.813,838.005 968.443,837.885 968.083,837.734C967.724,837.578 967.38,837.391 967.063,837.172C966.74,836.948 966.443,836.698 966.167,836.417C965.896,836.141 965.651,835.833 965.438,835.505C965.224,835.182 965.047,834.833 964.901,834.474L960.672,823.896C954.755,824.75 949.292,826.807 944.276,830.063C934.26,860.635 933.052,883.661 936.24,892.438C939.385,898.927 944.646,905.427 949.286,906.51C952.333,903.109 954.417,899.193 955.547,894.766C955.547,894.375 955.583,893.99 955.661,893.604C955.734,893.224 955.849,892.849 956,892.49C956.146,892.13 956.333,891.786 956.547,891.458C956.766,891.135 957.01,890.833 957.286,890.557C957.563,890.281 957.865,890.036 958.193,889.818C958.516,889.599 958.859,889.417 959.219,889.266C959.583,889.12 959.953,889.005 960.339,888.927C960.719,888.854 961.109,888.813 961.5,888.813C961.891,888.813 962.276,888.854 962.661,888.927C963.042,889.005 963.417,889.12 963.776,889.266C964.135,889.417 964.479,889.599 964.807,889.818C965.13,890.036 965.432,890.281 965.708,890.557C965.984,890.833 966.229,891.135 966.448,891.458C966.667,891.786 966.849,892.13 967,892.49C967.146,892.849 967.26,893.224 967.339,893.604C967.411,893.99 967.453,894.375 967.453,894.766C966.922,900.016 965.146,904.802 962.125,909.13C956.099,918.578 952.099,918.578 950.594,918.578Z" style="fill:rgb(98,222,54);fill-rule:nonzero;"/>
        </g>
    </g>
</svg>
