<svg width="16" height="16" viewBox="0 0 16 16" fill="none" xmlns="http://www.w3.org/2000/svg">
<path d="M16 6.08C16 6.33461 15.8989 6.57879 15.7188 6.75882C15.5388 6.93886 15.2946 7.04 15.04 7.04C14.7854 7.04 14.5412 6.93886 14.3612 6.75882C14.1811 6.57879 14.08 6.33461 14.08 6.08V3.28L9.3192 8.0408C9.13885 8.22115 8.89425 8.32246 8.6392 8.32246C8.38415 8.32246 8.13955 8.22115 7.9592 8.0408C7.77885 7.86045 7.67753 7.61585 7.67753 7.3608C7.67753 7.10575 7.77885 6.86115 7.9592 6.6808L12.72 1.92H9.92C9.66539 1.92 9.42121 1.81886 9.24118 1.63882C9.06114 1.45879 8.96 1.21461 8.96 0.96C8.96 0.705392 9.06114 0.461212 9.24118 0.281178C9.42121 0.101143 9.66539 0 9.92 0H15.04C15.2946 0 15.5388 0.101143 15.7188 0.281178C15.8989 0.461212 16 0.705392 16 0.96V6.08ZM12.48 8C12.2254 8 11.9812 8.10114 11.8012 8.28118C11.6211 8.46121 11.52 8.70539 11.52 8.96V14.08H1.92V4.48H7.04C7.29461 4.48 7.53879 4.37886 7.71882 4.19882C7.89886 4.01879 8 3.77461 8 3.52C8 3.26539 7.89886 3.02121 7.71882 2.84118C7.53879 2.66114 7.29461 2.56 7.04 2.56H1.6C1.17565 2.56 0.768687 2.72857 0.468629 3.02863C0.168571 3.32869 0 3.73565 0 4.16V14.4C0 14.8243 0.168571 15.2313 0.468629 15.5314C0.768687 15.8314 1.17565 16 1.6 16H11.84C12.2643 16 12.6713 15.8314 12.9714 15.5314C13.2714 15.2313 13.44 14.8243 13.44 14.4V8.96C13.44 8.70539 13.3389 8.46121 13.1588 8.28118C12.9788 8.10114 12.7346 8 12.48 8Z" fill="#FFA100"/>
</svg>
