<svg width="25" height="24" viewBox="0 0 25 24" fill="none" xmlns="http://www.w3.org/2000/svg">
<path d="M24.5 9.12C24.5 9.50191 24.3483 9.86818 24.0782 10.1382C23.8082 10.4083 23.4419 10.56 23.06 10.56C22.6781 10.56 22.3118 10.4083 22.0418 10.1382C21.7717 9.86818 21.62 9.50191 21.62 9.12V4.92L14.4788 12.0612C14.2083 12.3317 13.8414 12.4837 13.4588 12.4837C13.0762 12.4837 12.7093 12.3317 12.4388 12.0612C12.1683 11.7907 12.0163 11.4238 12.0163 11.0412C12.0163 10.6586 12.1683 10.2917 12.4388 10.0212L19.58 2.88H15.38C14.9981 2.88 14.6318 2.72829 14.3618 2.45823C14.0917 2.18818 13.94 1.82191 13.94 1.44C13.94 1.05809 14.0917 0.691819 14.3618 0.421766C14.6318 0.151714 14.9981 0 15.38 0H23.06C23.4419 0 23.8082 0.151714 24.0782 0.421766C24.3483 0.691819 24.5 1.05809 24.5 1.44V9.12ZM19.22 12C18.8381 12 18.4718 12.1517 18.2018 12.4218C17.9317 12.6918 17.78 13.0581 17.78 13.44V21.12H3.38V6.72H11.06C11.4419 6.72 11.8082 6.56829 12.0782 6.29823C12.3483 6.02818 12.5 5.66191 12.5 5.28C12.5 4.89809 12.3483 4.53182 12.0782 4.26177C11.8082 3.99171 11.4419 3.84 11.06 3.84H2.9C2.26348 3.84 1.65303 4.09286 1.20294 4.54294C0.752856 4.99303 0.5 5.60348 0.5 6.24V21.6C0.5 22.2365 0.752856 22.847 1.20294 23.2971C1.65303 23.7471 2.26348 24 2.9 24H18.26C18.8965 24 19.507 23.7471 19.9571 23.2971C20.4071 22.847 20.66 22.2365 20.66 21.6V13.44C20.66 13.0581 20.5083 12.6918 20.2382 12.4218C19.9682 12.1517 19.6019 12 19.22 12Z" fill="#FFA100"/>
</svg>
