<svg width="26" height="20" viewBox="0 0 26 20" fill="none" xmlns="http://www.w3.org/2000/svg">
<path d="M0.5 1.57895C0.5 1.16018 0.66462 0.758573 0.957645 0.462463C1.25067 0.166353 1.6481 0 2.0625 0H23.9375C24.3519 0 24.7493 0.166353 25.0424 0.462463C25.3354 0.758573 25.5 1.16018 25.5 1.57895C25.5 1.99771 25.3354 2.39932 25.0424 2.69543C24.7493 2.99154 24.3519 3.15789 23.9375 3.15789H2.0625C1.6481 3.15789 1.25067 2.99154 0.957645 2.69543C0.66462 2.39932 0.5 1.99771 0.5 1.57895ZM0.5 10C0.5 9.58124 0.66462 9.17963 0.957645 8.88352C1.25067 8.58741 1.6481 8.42105 2.0625 8.42105H23.9375C24.3519 8.42105 24.7493 8.58741 25.0424 8.88352C25.3354 9.17963 25.5 9.58124 25.5 10C25.5 10.4188 25.3354 10.8204 25.0424 11.1165C24.7493 11.4126 24.3519 11.5789 23.9375 11.5789H2.0625C1.6481 11.5789 1.25067 11.4126 0.957645 11.1165C0.66462 10.8204 0.5 10.4188 0.5 10ZM0.5 18.4211C0.5 18.0023 0.66462 17.6007 0.957645 17.3046C1.25067 17.0085 1.6481 16.8421 2.0625 16.8421H23.9375C24.3519 16.8421 24.7493 17.0085 25.0424 17.3046C25.3354 17.6007 25.5 18.0023 25.5 18.4211C25.5 18.8398 25.3354 19.2414 25.0424 19.5375C24.7493 19.8336 24.3519 20 23.9375 20H2.0625C1.6481 20 1.25067 19.8336 0.957645 19.5375C0.66462 19.2414 0.5 18.8398 0.5 18.4211Z" fill="#FFA100"/>
</svg>
