<?xml version="1.0" encoding="UTF-8" standalone="no"?>
<!DOCTYPE svg PUBLIC "-//W3C//DTD SVG 1.1//EN" "http://www.w3.org/Graphics/SVG/1.1/DTD/svg11.dtd">
<svg width="100%" height="100%" viewBox="0 0 1080 1080" version="1.1" xmlns="http://www.w3.org/2000/svg" xmlns:xlink="http://www.w3.org/1999/xlink" xml:space="preserve" xmlns:serif="http://www.serif.com/" style="fill-rule:evenodd;clip-rule:evenodd;stroke-linecap:round;stroke-linejoin:round;stroke-miterlimit:1;">
    <g id="hidden">
        <g>
            <clipPath id="_clip1">
                <path d="M1112.13,-14.29L1112.13,1192.33L-93.328,1192.33L-93.328,-14.29L1112.13,-14.29ZM990.504,960.466L-10.936,260.881L24.268,212.944L1021.96,915.15L990.504,960.466L-10.936,260.881L990.504,960.466M990.504,960.466L990.504,960.466ZM990.504,960.466L990.504,960.466Z"/>
            </clipPath>
            <g clip-path="url(#_clip1)">
                <g transform="matrix(0.886603,0,0,0.886603,55.2781,78.7931)">
                    <path d="M546.718,165.848C735.988,165.848 891.529,326.288 891.529,526.108C891.529,725.929 735.988,886.369 546.718,886.369C357.448,886.369 201.906,725.929 201.906,526.108C201.906,326.288 357.448,165.848 546.718,165.848ZM546.718,233.522C393.761,233.522 269.58,364.626 269.58,526.108C269.58,687.591 393.761,818.695 546.718,818.695C699.674,818.695 823.855,687.591 823.855,526.108C823.855,364.626 699.674,233.522 546.718,233.522Z"/>
                </g>
                <g transform="matrix(1.64674,0,0,0.956603,-360.301,39.0396)">
                    <path d="M546.718,170.8C665.274,170.8 769.28,306.309 820.33,403.675C837.145,435.747 848.458,464.259 853.822,483.114L858.742,505.403L860.265,528.486L858.2,549.245C857.171,555.178 855.553,562.31 853.173,570.353C847.574,589.275 836.205,617.541 819.544,649.288C768.386,746.768 665.304,881.417 546.718,881.417C427.972,881.417 324.969,755.72 273.745,657.115C245.806,603.333 233.512,552.614 233.156,527.652L234.351,506.583C235.228,499.521 236.707,491.406 238.969,482.491C244.453,460.876 255.921,430.666 273.06,397.729C324.167,299.508 428.04,170.8 546.718,170.8ZM546.718,233.522C393.761,233.522 268.824,473.2 269.58,526.108C270.423,585.061 393.761,818.695 546.718,818.695C699.674,818.695 822.959,566.776 823.855,526.108C824.715,487.084 699.674,233.522 546.718,233.522Z"/>
                </g>
                <g transform="matrix(1.64674,0,0,0.956603,-360.301,39.0396)">
                    <path d="M546.718,233.522C699.674,233.522 824.715,487.084 823.855,526.108C822.959,566.776 699.674,818.695 546.718,818.695C393.761,818.695 270.423,585.061 269.58,526.108C268.824,473.2 393.761,233.522 546.718,233.522Z" style="fill:none;stroke:black;stroke-width:7.16px;"/>
                </g>
                <path d="M540,262.428C791.879,262.428 997.789,504.985 996.373,542.317C994.898,581.22 791.879,822.206 540,822.206C288.121,822.206 85.015,598.711 83.627,542.317C82.381,491.704 288.121,262.428 540,262.428ZM540,285.835C404.388,285.835 294.289,402.071 294.289,545.243C294.289,688.414 404.388,804.65 540,804.65C675.612,804.65 785.711,688.414 785.711,545.243C785.711,402.071 675.612,285.835 540,285.835Z"/>
                <g transform="matrix(0.873898,0,0,0.873898,102.725,80.5529)">
                    <path d="M451.64,473.342C482.798,442.723 454.084,354.796 501.176,354.796C596.451,354.796 673.802,432.147 673.802,527.422C673.802,622.697 596.451,700.048 501.176,700.048C405.902,700.048 328.551,622.697 328.551,527.422C328.551,479.239 412.57,511.382 444.449,480.054" style="stroke:black;stroke-width:68.66px;stroke-linejoin:miter;"/>
                </g>
            </g>
        </g>
        <path d="M65.839,209.022L1016.16,873.777" style="fill:none;stroke:black;stroke-width:60px;stroke-linecap:square;"/>
    </g>
</svg>
