<?xml version="1.0" encoding="UTF-8" standalone="no"?>
<!DOCTYPE svg PUBLIC "-//W3C//DTD SVG 1.1//EN" "http://www.w3.org/Graphics/SVG/1.1/DTD/svg11.dtd">
<svg width="100%" height="100%" viewBox="0 0 124 124" version="1.1" xmlns="http://www.w3.org/2000/svg" xmlns:xlink="http://www.w3.org/1999/xlink" xml:space="preserve" xmlns:serif="http://www.serif.com/" style="fill-rule:evenodd;clip-rule:evenodd;stroke-linejoin:round;stroke-miterlimit:2;">
    <g transform="matrix(1,0,0,1,-1221.77,-802.615)">
        <path d="M1284.01,851.057C1276.41,851.057 1270.21,857.255 1270.21,864.849C1270.21,872.448 1276.41,878.646 1284.01,878.646C1291.6,878.646 1297.8,872.448 1297.8,864.849C1297.8,857.255 1291.6,851.057 1284.01,851.057Z" style="fill:rgb(98,222,54);fill-rule:nonzero;"/>
    </g>
    <g transform="matrix(1,0,0,1,-1221.77,-802.615)">
        <path d="M1302.54,831.01L1265.47,831.01C1257.06,831.01 1250.17,837.854 1250.17,846.318L1250.17,883.385C1250.17,891.792 1257.01,898.688 1265.47,898.688L1302.54,898.688C1310.95,898.688 1317.84,891.844 1317.84,883.385L1317.84,846.318C1317.79,837.854 1310.95,831.01 1302.54,831.01ZM1284.01,885.594C1272.53,885.594 1263.2,876.276 1263.2,864.797C1263.2,853.318 1272.53,844 1284.01,844C1295.48,844 1304.8,853.318 1304.8,864.797C1304.75,876.276 1295.43,885.594 1284.01,885.594ZM1306.26,847.5C1303.51,847.5 1301.25,845.24 1301.25,842.49C1301.25,839.74 1303.51,837.479 1306.26,837.479C1309.01,837.479 1311.27,839.74 1311.27,842.49C1311.27,845.292 1309.06,847.5 1306.26,847.5Z" style="fill:rgb(98,222,54);fill-rule:nonzero;"/>
    </g>
    <g transform="matrix(1,0,0,1,-1221.77,-802.615)">
        <clipPath id="_clip1">
            <rect x="1221.77" y="802.615" width="124" height="124"/>
        </clipPath>
        <g clip-path="url(#_clip1)">
            <path d="M1284.01,802.615C1249.62,802.615 1221.77,830.474 1221.77,864.849C1221.77,899.229 1249.62,927.083 1284.01,927.083C1318.38,927.083 1346.24,899.229 1346.24,864.849C1346.18,830.474 1318.33,802.615 1284.01,802.615ZM1324.79,883.385C1324.79,895.672 1314.77,905.693 1302.48,905.693L1265.47,905.693C1253.18,905.693 1243.16,895.672 1243.16,883.385L1243.16,846.318C1243.16,834.031 1253.18,824.01 1265.47,824.01L1302.54,824.01C1314.82,824.01 1324.85,834.031 1324.85,846.318L1324.85,883.385L1324.79,883.385Z" style="fill:rgb(98,222,54);fill-rule:nonzero;"/>
        </g>
    </g>
</svg>
