<?xml version="1.0" encoding="UTF-8" standalone="no"?>
<!DOCTYPE svg PUBLIC "-//W3C//DTD SVG 1.1//EN" "http://www.w3.org/Graphics/SVG/1.1/DTD/svg11.dtd">
<svg width="100%" height="100%" viewBox="0 0 124 124" version="1.1" xmlns="http://www.w3.org/2000/svg" xmlns:xlink="http://www.w3.org/1999/xlink" xml:space="preserve" xmlns:serif="http://www.serif.com/" style="fill-rule:evenodd;clip-rule:evenodd;stroke-linejoin:round;stroke-miterlimit:2;">
    <g transform="matrix(1,0,0,1,-317.458,-802.615)">
        <clipPath id="_clip1">
            <rect x="317.458" y="802.615" width="124" height="124"/>
        </clipPath>
        <g clip-path="url(#_clip1)">
            <path d="M441.927,864.849C441.927,830.479 414.068,802.615 379.693,802.615C345.323,802.615 317.458,830.479 317.458,864.849C317.458,899.224 345.323,927.083 379.693,927.083C414.068,927.083 441.927,899.224 441.927,864.849ZM373.37,914.448C373.979,914.87 374.766,914.411 374.766,913.672L374.766,892.318C374.766,891.792 374.349,891.359 373.828,891.339C369.307,891.161 364.891,890.776 360.615,890.203C359.917,890.109 359.349,890.755 359.547,891.432C360.932,896.109 362.656,900.292 364.62,903.865C367.547,909.193 370.583,912.521 373.37,914.448ZM386.078,891.318C385.557,891.344 385.141,891.771 385.141,892.297L385.141,913.297C385.141,914.052 385.958,914.51 386.568,914.052C389.203,912.078 392.036,908.844 394.771,903.865C396.729,900.292 398.453,896.109 399.844,891.432C400.042,890.755 399.474,890.109 398.776,890.203C394.661,890.755 390.417,891.13 386.078,891.318ZM386.151,880.932C385.599,880.958 385.141,880.516 385.141,879.964L385.141,859.547C385.141,859.026 385.552,858.594 386.073,858.568C391.63,858.286 397.005,857.63 402.078,856.646C402.651,856.536 403.198,856.943 403.24,857.526C403.411,859.911 403.5,862.354 403.5,864.849C403.5,869.578 403.182,874.125 402.599,878.432C402.542,878.849 402.224,879.177 401.807,879.25C396.875,880.099 391.63,880.677 386.151,880.932ZM373.75,848.208C374.307,848.234 374.766,847.792 374.766,847.234L374.766,816.031C374.766,815.292 373.979,814.828 373.37,815.25C370.583,817.182 367.547,820.505 364.62,825.839C361.734,831.089 359.365,837.672 357.823,845.188C357.719,845.708 358.052,846.219 358.573,846.323C363.271,847.276 368.37,847.927 373.75,848.208ZM385.141,847.208C385.141,847.766 385.604,848.208 386.161,848.177C391.354,847.885 396.271,847.245 400.818,846.323C401.339,846.219 401.672,845.708 401.568,845.188C400.026,837.672 397.656,831.089 394.771,825.839C392.036,820.854 389.203,817.625 386.568,815.646C385.958,815.193 385.141,815.651 385.141,816.406L385.141,847.208ZM373.76,880.958C374.313,880.979 374.766,880.536 374.766,879.984L374.766,859.573C374.766,859.047 374.354,858.62 373.833,858.594C368.089,858.323 362.542,857.661 357.313,856.646C356.734,856.536 356.188,856.943 356.146,857.526C355.979,859.911 355.891,862.354 355.891,864.849C355.891,869.578 356.208,874.125 356.792,878.432C356.849,878.849 357.167,879.177 357.583,879.25C362.672,880.125 368.089,880.714 373.76,880.958ZM405.276,909.974C404.427,910.458 403.521,909.49 403.984,908.63C407.109,902.885 409.62,896.042 411.333,888.443C411.411,888.078 411.693,887.786 412.057,887.698C417.255,886.417 422.12,884.823 426.547,882.958C427.339,882.625 428.156,883.385 427.833,884.182C423.438,895.115 415.427,904.208 405.276,909.974ZM413.401,875.203C413.339,875.891 413.984,876.432 414.646,876.229C421.042,874.276 426.578,871.828 431,869.042C431.26,868.88 431.422,868.604 431.443,868.297C431.521,867.156 431.557,866.01 431.557,864.849C431.557,858.932 430.563,853.245 428.74,847.948C428.536,847.354 427.828,847.125 427.297,847.453C423.484,849.802 419.021,851.839 414.073,853.51C413.641,853.656 413.365,854.078 413.406,854.536C413.714,857.891 413.87,861.339 413.87,864.849C413.87,868.375 413.708,871.833 413.401,875.203ZM327.948,868.297C327.964,868.604 328.13,868.88 328.391,869.042C332.813,871.828 338.349,874.276 344.74,876.229C345.406,876.432 346.052,875.891 345.99,875.203C345.677,871.833 345.516,868.375 345.516,864.849C345.516,861.339 345.677,857.891 345.984,854.536C346.026,854.078 345.75,853.656 345.318,853.51C340.365,851.839 335.906,849.802 332.089,847.453C331.557,847.125 330.854,847.354 330.651,847.948C328.823,853.245 327.833,858.932 327.833,864.849C327.833,866.01 327.87,867.156 327.948,868.297ZM348.057,888.443C347.974,888.078 347.698,887.786 347.333,887.698C342.135,886.417 337.271,884.823 332.844,882.958C332.052,882.625 331.234,883.385 331.557,884.182C335.948,895.115 343.964,904.208 354.115,909.974C354.964,910.458 355.87,909.49 355.401,908.63C352.281,902.885 349.771,896.042 348.057,888.443ZM423.208,836.625C423.495,837.057 423.375,837.635 422.948,837.922C420.151,839.781 416.74,841.484 412.828,842.943C412.271,843.151 411.667,842.807 411.542,842.229C409.833,834.245 407.24,827.057 403.984,821.073C403.521,820.214 404.427,819.245 405.276,819.729C412.521,823.844 418.682,829.656 423.208,836.625ZM346.563,842.943C347.115,843.151 347.724,842.807 347.844,842.229C349.557,834.245 352.151,827.057 355.401,821.073C355.87,820.214 354.964,819.245 354.115,819.729C346.865,823.844 340.708,829.656 336.177,836.625C335.896,837.057 336.016,837.635 336.443,837.922C339.24,839.781 342.646,841.484 346.563,842.943Z" style="fill:rgb(98,222,54);"/>
        </g>
    </g>
</svg>
