<svg width="40" height="40" viewBox="0 0 40 40" fill="none" xmlns="http://www.w3.org/2000/svg">
<path d="M20 0C16.0444 0 12.1776 1.17298 8.8886 3.37061C5.59962 5.56823 3.03617 8.69181 1.52242 12.3463C0.00866562 16.0009 -0.387401 20.0222 0.384303 23.9018C1.15601 27.7814 3.06082 31.3451 5.85787 34.1421C8.65492 36.9392 12.2186 38.844 16.0982 39.6157C19.9778 40.3874 23.9992 39.9913 27.6537 38.4776C31.3082 36.9638 34.4318 34.4004 36.6294 31.1114C38.827 27.8224 40 23.9556 40 20C39.9941 14.6975 37.8851 9.61381 34.1356 5.86436C30.3862 2.11491 25.3025 0.00588189 20 0ZM20 34.6296C18.3626 32.7132 17.0835 30.5177 16.2241 28.1481H23.7833C23.2942 29.4881 22.6739 30.7765 21.9315 31.9944C21.3602 32.9238 20.7142 33.8051 20 34.6296ZM15.0945 23.7037C14.7278 21.2482 14.7278 18.7518 15.0945 16.2963H24.9093C25.2759 18.7518 25.2759 21.2482 24.9093 23.7037H15.0945ZM4.44445 20C4.4444 18.7518 4.5955 17.5082 4.89445 16.2963H10.6019C10.2932 18.7558 10.2932 21.2442 10.6019 23.7037H4.89445C4.5955 22.4918 4.4444 21.2482 4.44445 20ZM20 5.37037C21.6374 7.28674 22.9165 9.48225 23.7759 11.8518H16.2204C16.7095 10.5119 17.3298 9.22353 18.0722 8.00555C18.6423 7.07637 19.2871 6.19507 20 5.37037ZM29.3944 16.2963H35.1019C35.7019 18.729 35.7019 21.271 35.1019 23.7037H29.3982C29.7068 21.2442 29.7068 18.7558 29.3982 16.2963H29.3944ZM33.2407 11.8518H28.4648C27.7975 9.61181 26.8321 7.47166 25.5945 5.48889C28.7688 6.72116 31.4546 8.9551 33.2444 11.8518H33.2407ZM14.4056 5.48889C13.1679 7.47166 12.2025 9.61181 11.5352 11.8518H6.75556C8.54544 8.9551 11.2312 6.72116 14.4056 5.48889ZM6.75556 28.1481H11.5352C12.2025 30.3882 13.1679 32.5283 14.4056 34.5111C11.2312 33.2788 8.54544 31.0449 6.75556 28.1481ZM25.5945 34.5111C26.8321 32.5283 27.7975 30.3882 28.4648 28.1481H33.2444C31.4546 31.0449 28.7688 33.2788 25.5945 34.5111Z" fill="#FFA100"/>
</svg>
