<svg width="20" height="12" viewBox="0 0 20 12" fill="currentcolor" xmlns="http://www.w3.org/2000/svg">
<path d="M0.440231 11.5411C0.722196 11.8349 1.10457 12 1.50327 12C1.90197 12 2.28434 11.8349 2.56631 11.5411L10.0091 3.78308L17.4518 11.5411C17.7354 11.8266 18.1152 11.9846 18.5095 11.981C18.9037 11.9774 19.2808 11.8126 19.5596 11.522C19.8384 11.2314 19.9965 10.8383 19.9999 10.4274C20.0034 10.0165 19.8518 9.62058 19.5779 9.32499L11.0721 0.458878C10.7902 0.165059 10.4078 0 10.0091 0C9.61038 0 9.22801 0.165059 8.94604 0.458878L0.440231 9.32499C0.158351 9.6189 0 10.0175 0 10.4331C0 10.8486 0.158351 11.2472 0.440231 11.5411Z" fill="#10D131"/>
</svg>
