<svg width="29" height="40" viewBox="0 0 29 40" fill="none" xmlns="http://www.w3.org/2000/svg">
<path fill-rule="evenodd" clip-rule="evenodd" d="M2.63636 14.5086C2.63636 12.1622 3.33215 9.86849 4.63575 7.91753C5.93934 5.96656 7.79219 4.44597 9.95998 3.54804C12.1278 2.65011 14.5132 2.41517 16.8145 2.87293C19.1158 3.33069 21.2297 4.46059 22.8889 6.11975C24.548 7.77891 25.6779 9.89281 26.1357 12.1941C26.5934 14.4954 26.3585 16.8808 25.4606 19.0486C24.5626 21.2164 23.042 23.0693 21.0911 24.3729C19.1401 25.6765 16.8464 26.3722 14.5 26.3722C11.3546 26.3688 8.3391 25.1177 6.115 22.8936C3.89089 20.6695 2.63985 17.654 2.63636 14.5086Z" fill="#D0D0D0"/>
<path fill-rule="evenodd" clip-rule="evenodd" d="M27.2089 7.51899C28.3853 9.66072 29.0014 12.065 29 14.5086C29.0004 16.6452 28.5279 18.7555 27.6163 20.6878C26.7046 22.6202 25.3765 24.3268 23.7273 25.6851V38.2359C23.7273 38.5855 23.5884 38.9208 23.3412 39.168C23.094 39.4152 22.7587 39.5541 22.4091 39.5541C22.2056 39.5562 22.0044 39.5117 21.8208 39.4239L14.5 35.7643L7.1808 39.4156C6.97975 39.5163 6.75632 39.5638 6.53174 39.5537C6.30716 39.5436 6.08889 39.4762 5.89768 39.358C5.70647 39.2398 5.54867 39.0746 5.43929 38.8782C5.3299 38.6818 5.27257 38.4607 5.27273 38.2359V25.6851C3.38778 24.1301 1.92639 22.124 1.02428 19.853C0.122175 17.5821 -0.191379 15.1199 0.112742 12.6954C0.416862 10.2708 1.32879 7.9624 2.76383 5.98459C4.19887 4.00678 6.11047 2.42371 8.32108 1.38242C10.5317 0.341136 12.9696 -0.124597 15.4084 0.0284839C17.8471 0.181565 20.2077 0.948493 22.2707 2.25804C24.3338 3.56758 26.0324 5.37726 27.2089 7.51899ZM4.63575 7.91753C3.33215 9.86849 2.63636 12.1622 2.63636 14.5086C2.63985 17.654 3.89089 20.6695 6.115 22.8936C8.3391 25.1177 11.3546 26.3688 14.5 26.3722C16.8464 26.3722 19.1401 25.6765 21.0911 24.3729C23.042 23.0693 24.5626 21.2164 25.4606 19.0486C26.3585 16.8808 26.5934 14.4954 26.1357 12.1941C25.6779 9.89281 24.548 7.77891 22.8889 6.11975C21.2297 4.46059 19.1158 3.33069 16.8145 2.87293C14.5132 2.41517 12.1278 2.65011 9.95998 3.54804C7.79219 4.44597 5.93934 5.96656 4.63575 7.91753ZM15.0882 33.1032L21.0909 36.1037V27.4218C19.0504 28.4648 16.7916 29.0086 14.5 29.0086C12.2084 29.0086 9.94958 28.4648 7.90909 27.4218V36.1037L13.9085 33.1032C14.0916 33.0116 14.2936 32.9639 14.4984 32.9639C14.7031 32.9639 14.9051 33.0116 15.0882 33.1032Z" fill="#121212"/>
<path d="M21.0909 36.1037L15.0882 33.1032C14.9051 33.0116 14.7031 32.9639 14.4984 32.9639C14.2936 32.9639 14.0916 33.0116 13.9085 33.1032L7.90909 36.1037V27.4218C9.94958 28.4648 12.2084 29.0086 14.5 29.0086C16.7916 29.0086 19.0504 28.4648 21.0909 27.4218V36.1037Z" fill="#FFA100"/>
<path d="M10.8291 20V19.056C11.6184 18.4587 12.3651 17.856 13.0691 17.248C13.7731 16.64 14.3971 16.0373 14.9411 15.44C15.4851 14.832 15.9117 14.24 16.2211 13.664C16.5304 13.088 16.6851 12.5333 16.6851 12C16.6851 11.6053 16.6104 11.2427 16.4611 10.912C16.3224 10.5707 16.0931 10.2933 15.7731 10.08C15.4637 9.86667 15.0424 9.76 14.5091 9.76C13.9971 9.76 13.5704 9.872 13.2291 10.096C12.8877 10.3093 12.6317 10.5973 12.4611 10.96C12.2904 11.312 12.2051 11.7013 12.2051 12.128H10.9091C10.9197 11.392 11.0797 10.7627 11.3891 10.24C11.6984 9.70667 12.1251 9.30133 12.6691 9.024C13.2131 8.74667 13.8317 8.608 14.5251 8.608C15.2077 8.608 15.8104 8.736 16.3331 8.992C16.8557 9.23733 17.2664 9.61067 17.5651 10.112C17.8744 10.6027 18.0291 11.216 18.0291 11.952C18.0291 12.4747 17.9171 12.9973 17.6931 13.52C17.4797 14.0427 17.1864 14.5547 16.8131 15.056C16.4397 15.5467 16.0237 16.0213 15.5651 16.48C15.1171 16.9387 14.6531 17.3707 14.1731 17.776C13.6931 18.1813 13.2397 18.5493 12.8131 18.88H18.4131V20H10.8291Z" fill="#121212"/>
</svg>
