<svg width="30" height="41" viewBox="0 0 30 41" fill="none" xmlns="http://www.w3.org/2000/svg">
<path fill-rule="evenodd" clip-rule="evenodd" d="M3.13636 15.2786C3.13636 12.9322 3.83215 10.6385 5.13575 8.68755C6.43934 6.73658 8.29219 5.21599 10.46 4.31806C12.6278 3.42013 15.0132 3.18519 17.3145 3.64295C19.6158 4.10071 21.7297 5.23061 23.3889 6.88977C25.048 8.54893 26.1779 10.6628 26.6357 12.9641C27.0934 15.2655 26.8585 17.6508 25.9606 19.8186C25.0626 21.9864 23.542 23.8393 21.5911 25.1429C19.6401 26.4465 17.3464 27.1423 15 27.1423C11.8546 27.1388 8.8391 25.8877 6.615 23.6636C4.39089 21.4395 3.13985 18.424 3.13636 15.2786Z" fill="#FFE99C"/>
<path fill-rule="evenodd" clip-rule="evenodd" d="M27.7089 8.28901C28.8853 10.4307 29.5014 12.8351 29.5 15.2786C29.5004 17.4152 29.0279 19.5255 28.1163 21.4578C27.2046 23.3902 25.8765 25.0968 24.2273 26.4552V39.0059C24.2273 39.3555 24.0884 39.6908 23.8412 39.938C23.594 40.1852 23.2587 40.3241 22.9091 40.3241C22.7056 40.3263 22.5044 40.2817 22.3208 40.1939L15 36.5343L7.6808 40.1857C7.47975 40.2863 7.25632 40.3338 7.03174 40.3237C6.80716 40.3136 6.58889 40.2462 6.39768 40.128C6.20647 40.0098 6.04867 39.8446 5.93929 39.6482C5.8299 39.4518 5.77257 39.2307 5.77273 39.0059V26.4552C3.88778 24.9002 2.42639 22.894 1.52428 20.623C0.622175 18.3521 0.308621 15.89 0.612742 13.4654C0.916862 11.0408 1.82879 8.73242 3.26383 6.75461C4.69887 4.7768 6.61047 3.19373 8.82108 2.15244C11.0317 1.11116 13.4696 0.645423 15.9084 0.798503C18.3471 0.951584 20.7077 1.71851 22.7707 3.02806C24.8338 4.3376 26.5324 6.14728 27.7089 8.28901ZM5.13575 8.68755C3.83215 10.6385 3.13636 12.9322 3.13636 15.2786C3.13985 18.424 4.39089 21.4395 6.615 23.6636C8.8391 25.8877 11.8546 27.1388 15 27.1423C17.3464 27.1423 19.6401 26.4465 21.5911 25.1429C23.542 23.8393 25.0626 21.9864 25.9606 19.8186C26.8585 17.6508 27.0934 15.2655 26.6357 12.9641C26.1779 10.6628 25.048 8.54893 23.3889 6.88977C21.7297 5.23061 19.6158 4.10071 17.3145 3.64295C15.0132 3.18519 12.6278 3.42013 10.46 4.31806C8.29219 5.21599 6.43934 6.73658 5.13575 8.68755ZM15.5882 33.8732L21.5909 36.8737V28.1919C19.5504 29.2348 17.2916 29.7786 15 29.7786C12.7084 29.7786 10.4496 29.2348 8.40909 28.1919V36.8737L14.4085 33.8732C14.5916 33.7816 14.7936 33.7339 14.9984 33.7339C15.2031 33.7339 15.4051 33.7816 15.5882 33.8732Z" fill="#121212"/>
<path d="M21.5909 36.8737L15.5882 33.8732C15.4051 33.7816 15.2031 33.7339 14.9984 33.7339C14.7936 33.7339 14.5916 33.7816 14.4085 33.8732L8.40909 36.8737V28.1919C10.4496 29.2348 12.7084 29.7786 15 29.7786C17.2916 29.7786 19.5504 29.2348 21.5909 28.1919V36.8737Z" fill="#FFA100"/>
<path d="M14.6456 22V12.304L12.3416 13.04V11.984L15.0936 10.8H16.0056V22H14.6456Z" fill="#121212"/>
</svg>
