<svg width="29" height="40" viewBox="0 0 29 40" fill="none" xmlns="http://www.w3.org/2000/svg">
<path fill-rule="evenodd" clip-rule="evenodd" d="M2.63636 14.5086C2.63636 12.1622 3.33215 9.86849 4.63575 7.91753C5.93934 5.96656 7.79219 4.44597 9.95998 3.54804C12.1278 2.65011 14.5132 2.41517 16.8145 2.87293C19.1158 3.33069 21.2297 4.46059 22.8889 6.11975C24.548 7.77891 25.6779 9.89281 26.1357 12.1941C26.5934 14.4954 26.3585 16.8808 25.4606 19.0486C24.5626 21.2164 23.042 23.0693 21.0911 24.3729C19.1401 25.6765 16.8464 26.3722 14.5 26.3722C11.3546 26.3688 8.3391 25.1177 6.115 22.8936C3.89089 20.6695 2.63985 17.654 2.63636 14.5086Z" fill="#FFA99F"/>
<path fill-rule="evenodd" clip-rule="evenodd" d="M27.2089 7.51899C28.3853 9.66072 29.0014 12.065 29 14.5086C29.0004 16.6452 28.5279 18.7555 27.6163 20.6878C26.7046 22.6202 25.3765 24.3268 23.7273 25.6851V38.2359C23.7273 38.5855 23.5884 38.9208 23.3412 39.168C23.094 39.4152 22.7587 39.5541 22.4091 39.5541C22.2056 39.5562 22.0044 39.5117 21.8208 39.4239L14.5 35.7643L7.1808 39.4156C6.97975 39.5163 6.75632 39.5638 6.53174 39.5537C6.30716 39.5436 6.08889 39.4762 5.89768 39.358C5.70647 39.2398 5.54867 39.0746 5.43929 38.8782C5.3299 38.6818 5.27257 38.4607 5.27273 38.2359V25.6851C3.38778 24.1301 1.92639 22.124 1.02428 19.853C0.122175 17.5821 -0.191379 15.1199 0.112742 12.6954C0.416862 10.2708 1.32879 7.9624 2.76383 5.98459C4.19887 4.00678 6.11047 2.42371 8.32108 1.38242C10.5317 0.341136 12.9696 -0.124597 15.4084 0.0284839C17.8471 0.181565 20.2077 0.948493 22.2707 2.25804C24.3338 3.56758 26.0324 5.37726 27.2089 7.51899ZM4.63575 7.91753C3.33215 9.86849 2.63636 12.1622 2.63636 14.5086C2.63985 17.654 3.89089 20.6695 6.115 22.8936C8.3391 25.1177 11.3546 26.3688 14.5 26.3722C16.8464 26.3722 19.1401 25.6765 21.0911 24.3729C23.042 23.0693 24.5626 21.2164 25.4606 19.0486C26.3585 16.8808 26.5934 14.4954 26.1357 12.1941C25.6779 9.89281 24.548 7.77891 22.8889 6.11975C21.2297 4.46059 19.1158 3.33069 16.8145 2.87293C14.5132 2.41517 12.1278 2.65011 9.95998 3.54804C7.79219 4.44597 5.93934 5.96656 4.63575 7.91753ZM15.0882 33.1032L21.0909 36.1037V27.4218C19.0504 28.4648 16.7916 29.0086 14.5 29.0086C12.2084 29.0086 9.94958 28.4648 7.90909 27.4218V36.1037L13.9085 33.1032C14.0916 33.0116 14.2936 32.9639 14.4984 32.9639C14.7031 32.9639 14.9051 33.0116 15.0882 33.1032Z" fill="#121212"/>
<path d="M21.0909 36.1037L15.0882 33.1032C14.9051 33.0116 14.7031 32.9639 14.4984 32.9639C14.2936 32.9639 14.0916 33.0116 13.9085 33.1032L7.90909 36.1037V27.4218C9.94958 28.4648 12.2084 29.0086 14.5 29.0086C16.7916 29.0086 19.0504 28.4648 21.0909 27.4218V36.1037Z" fill="#FFA100"/>
<path d="M14.4708 20.192C13.7561 20.192 13.1054 20.064 12.5188 19.808C11.9428 19.5413 11.4841 19.1467 11.1428 18.624C10.8014 18.1013 10.6201 17.4507 10.5988 16.672H11.9588C11.9694 17.0987 12.0708 17.4933 12.2628 17.856C12.4654 18.208 12.7534 18.4907 13.1268 18.704C13.5001 18.9173 13.9481 19.024 14.4708 19.024C14.9934 19.024 15.4308 18.9227 15.7828 18.72C16.1348 18.5173 16.4014 18.2507 16.5828 17.92C16.7641 17.5787 16.8548 17.2 16.8548 16.784C16.8548 16.2827 16.7268 15.8773 16.4708 15.568C16.2254 15.248 15.8894 15.0133 15.4628 14.864C15.0468 14.704 14.5881 14.624 14.0868 14.624H13.2548V13.488H14.0868C14.8441 13.488 15.4361 13.3173 15.8628 12.976C16.3001 12.624 16.5188 12.1387 16.5188 11.52C16.5188 11.0187 16.3481 10.6027 16.0068 10.272C15.6654 9.94133 15.1534 9.776 14.4708 9.776C13.7988 9.776 13.2708 9.95733 12.8868 10.32C12.5028 10.6827 12.2841 11.1467 12.2308 11.712H10.8708C10.9028 11.104 11.0681 10.5653 11.3668 10.096C11.6761 9.62667 12.0921 9.264 12.6148 9.008C13.1481 8.74133 13.7668 8.608 14.4708 8.608C15.2174 8.608 15.8414 8.736 16.3428 8.992C16.8548 9.248 17.2388 9.58933 17.4948 10.016C17.7508 10.4427 17.8788 10.9173 17.8788 11.44C17.8788 11.824 17.8041 12.192 17.6548 12.544C17.5161 12.896 17.3028 13.2 17.0148 13.456C16.7268 13.712 16.3588 13.8933 15.9108 14C16.3481 14.0853 16.7374 14.2507 17.0788 14.496C17.4308 14.7413 17.7081 15.056 17.9108 15.44C18.1134 15.824 18.2148 16.272 18.2148 16.784C18.2148 17.392 18.0708 17.9573 17.7828 18.48C17.5054 18.992 17.0894 19.408 16.5348 19.728C15.9801 20.0373 15.2921 20.192 14.4708 20.192Z" fill="#121212"/>
</svg>
