<svg width="34" height="40" viewBox="0 0 34 40" fill="none" xmlns="http://www.w3.org/2000/svg">
<path d="M32.242 16.8643L5.61911 0.541399C5.06079 0.200231 4.42216 0.0136579 3.76841 0.000721739C3.11465 -0.0122144 2.46917 0.14895 1.89786 0.467765C1.32654 0.786581 0.849848 1.25163 0.516428 1.81545C0.183009 2.37927 0.00480293 3.02166 0 3.67707V36.3229C0.00480293 36.9783 0.183009 37.6207 0.516428 38.1845C0.849848 38.7484 1.32654 39.2134 1.89786 39.5322C2.46917 39.851 3.11465 40.0122 3.76841 39.9993C4.42216 39.9863 5.06079 39.7998 5.61911 39.4586L32.242 23.1357C32.7788 22.8081 33.2225 22.3476 33.5304 21.7985C33.8383 21.2493 34 20.6299 34 20C34 19.3701 33.8383 18.7507 33.5304 18.2015C33.2225 17.6524 32.7788 17.1919 32.242 16.8643ZM4.43468 34.9746V5.02543L28.855 20L4.43468 34.9746Z" fill="#121212"/>
</svg>
