<svg width="40" height="40" viewBox="0 0 40 40" fill="none" xmlns="http://www.w3.org/2000/svg">
<path d="M20 0C16.0444 0 12.1776 1.17298 8.8886 3.37061C5.59962 5.56823 3.03617 8.69181 1.52242 12.3463C0.00866569 16.0008 -0.387401 20.0222 0.384303 23.9018C1.15601 27.7814 3.06082 31.3451 5.85787 34.1421C8.65492 36.9392 12.2186 38.844 16.0982 39.6157C19.9778 40.3874 23.9991 39.9913 27.6537 38.4776C31.3082 36.9638 34.4318 34.4004 36.6294 31.1114C38.827 27.8224 40 23.9556 40 20C39.9944 14.6974 37.8855 9.61356 34.136 5.86405C30.3864 2.11453 25.3026 0.00559965 20 0ZM9.63078 33.3654C10.7437 31.6248 12.2769 30.1923 14.0891 29.2001C15.9012 28.2079 17.934 27.6878 20 27.6878C22.066 27.6878 24.0988 28.2079 25.9109 29.2001C27.7231 30.1923 29.2563 31.6248 30.3692 33.3654C27.4045 35.6711 23.7558 36.9229 20 36.9229C16.2442 36.9229 12.5955 35.6711 9.63078 33.3654ZM13.8462 18.4615C13.8462 17.2444 14.2071 16.0546 14.8833 15.0426C15.5595 14.0306 16.5206 13.2419 17.645 12.7761C18.7695 12.3104 20.0068 12.1885 21.2006 12.4259C22.3943 12.6634 23.4908 13.2495 24.3514 14.1101C25.2121 14.9707 25.7982 16.0672 26.0356 17.261C26.2731 18.4547 26.1512 19.692 25.6854 20.8165C25.2196 21.941 24.4309 22.9021 23.4189 23.5783C22.4069 24.2545 21.2171 24.6154 20 24.6154C18.3679 24.6154 16.8026 23.967 15.6486 22.813C14.4945 21.6589 13.8462 20.0936 13.8462 18.4615ZM32.6462 31.2327C30.9303 28.7463 28.5177 26.8227 25.7115 25.7038C27.2189 24.5166 28.3188 22.8892 28.8583 21.0479C29.3979 19.2066 29.3502 17.2429 28.722 15.4299C28.0937 13.6169 26.9161 12.0448 25.353 10.9321C23.7898 9.81941 21.9187 9.22149 20 9.22149C18.0813 9.22149 16.2102 9.81941 14.647 10.9321C13.0839 12.0448 11.9063 13.6169 11.2781 15.4299C10.6498 17.2429 10.6021 19.2066 11.1417 21.0479C11.6812 22.8892 12.7811 24.5166 14.2885 25.7038C11.4823 26.8227 9.06968 28.7463 7.35385 31.2327C5.18572 28.7945 3.76861 25.7816 3.27317 22.5567C2.77774 19.3318 3.2251 16.0325 4.56139 13.056C5.89768 10.0794 8.06592 7.55265 10.805 5.77988C13.5441 4.00711 16.7373 3.06393 20 3.06393C23.2627 3.06393 26.4559 4.00711 29.195 5.77988C31.9341 7.55265 34.1023 10.0794 35.4386 13.056C36.7749 16.0325 37.2223 19.3318 36.7268 22.5567C36.2314 25.7816 34.8143 28.7945 32.6462 31.2327Z" fill="#FFA100"/>
</svg>
