<svg width="20" height="21" viewBox="0 0 20 21" fill="none" xmlns="http://www.w3.org/2000/svg">
<g clip-path="url(#clip0_13058_27064)">
<path d="M7.99421 0.5C3.59096 0.5 0 4.09097 0 8.49421C0 12.8974 3.59096 16.4884 7.99421 16.4884C9.83689 16.4884 11.5326 15.8543 12.8871 14.8002L18.2797 20.1928C18.3718 20.2887 18.4821 20.3652 18.6041 20.418C18.7262 20.4707 18.8575 20.4986 18.9905 20.4999C19.1234 20.5013 19.2553 20.4761 19.3784 20.4259C19.5015 20.3756 19.6133 20.3013 19.7073 20.2073C19.8013 20.1133 19.8756 20.0015 19.9259 19.8784C19.9761 19.7553 20.0013 19.6234 19.9999 19.4905C19.9986 19.3575 19.9707 19.2262 19.918 19.1041C19.8652 18.9821 19.7887 18.8718 19.6928 18.7797L14.3002 13.3871C15.3543 12.0326 15.9884 10.3369 15.9884 8.49421C15.9884 4.09097 12.3975 0.5 7.99421 0.5ZM7.99421 2.49855C11.3174 2.49855 13.9899 5.17106 13.9899 8.49421C13.9899 11.8174 11.3174 14.4899 7.99421 14.4899C4.67106 14.4899 1.99855 11.8174 1.99855 8.49421C1.99855 5.17106 4.67106 2.49855 7.99421 2.49855Z" fill="#FFA100"/>
</g>
<defs>
<clipPath id="clip0_13058_27064">
<rect width="20" height="20" fill="white" transform="translate(0 0.5)"/>
</clipPath>
</defs>
</svg>
