<svg width="20" height="21" viewBox="0 0 20 21" fill="none" xmlns="http://www.w3.org/2000/svg">
  <path d="M19.0206 8.98822L2.86344 0.719952C2.52278 0.548819 2.1321 0.474754 1.74335 0.507608C1.35461 0.540462 0.986232 0.678678 0.687219 0.903872C0.388206 1.12907 0.172731 1.43057 0.069453 1.76827C-0.0338246 2.10597 -0.0200091 2.46386 0.109062 2.79435L3.01054 10.4988L0.109062 18.2032C0.00705438 18.4631 -0.0240131 18.7411 0.0184621 19.014C0.0609372 19.2869 0.175718 19.5467 0.353189 19.7717C0.53066 19.9966 0.765653 20.1801 1.03848 20.3068C1.31131 20.4335 1.61403 20.4998 1.92128 20.5C2.25169 20.4994 2.5764 20.4228 2.8644 20.2776L2.87306 20.2724L19.0244 11.9895C19.3205 11.8391 19.5669 11.621 19.7383 11.3574C19.9097 11.0937 20 10.794 20 10.4888C20 10.1837 19.9097 9.88396 19.7383 9.62032C19.5669 9.35668 19.3205 9.13856 19.0244 8.98822H19.0206ZM2.61252 18.0221L5.05637 11.5334H10.3815C10.6875 11.5334 10.9809 11.4244 11.1973 11.2303C11.4136 11.0363 11.5352 10.7732 11.5352 10.4988C11.5352 10.2244 11.4136 9.9612 11.1973 9.76717C10.9809 9.57315 10.6875 9.46414 10.3815 9.46414H5.05637L2.61156 2.97368L17.2977 10.4893L2.61252 18.0221Z" fill="#FFA100"/>
</svg>
