<svg width="20" height="22" viewBox="0 0 20 22" fill="none" xmlns="http://www.w3.org/2000/svg">
<path d="M15.5005 13.6253C14.4959 13.6237 13.5255 13.9906 12.7733 14.6565L8.9474 12.2003C9.18487 11.4179 9.18487 10.5826 8.9474 9.80026L12.7733 7.34401C13.518 7.99848 14.4742 8.36164 15.4656 8.36652C16.4571 8.37139 17.4168 8.01767 18.1679 7.37056C18.919 6.72345 19.4108 5.8266 19.5527 4.84539C19.6945 3.86417 19.4768 2.86476 18.9397 2.03143C18.4026 1.1981 17.5823 0.587063 16.6301 0.310979C15.6779 0.0348959 14.658 0.112388 13.7585 0.529167C12.8589 0.945945 12.1404 1.6739 11.7353 2.57881C11.3303 3.48372 11.2661 4.50455 11.5546 5.45308L7.72771 7.90651C7.1326 7.38058 6.39831 7.03763 5.61303 6.91885C4.82776 6.80007 4.02489 6.9105 3.30085 7.2369C2.57681 7.56329 1.96239 8.09176 1.53138 8.75884C1.10037 9.42592 0.871094 10.2032 0.871094 10.9975C0.871094 11.7917 1.10037 12.569 1.53138 13.2361C1.96239 13.9031 2.57681 14.4316 3.30085 14.758C4.02489 15.0844 4.82776 15.1948 5.61303 15.0761C6.39831 14.9573 7.1326 14.6143 7.72771 14.0884L11.5536 16.5503C11.3012 17.3805 11.317 18.2692 11.5988 19.0899C11.8807 19.9106 12.4141 20.6216 13.1233 21.1216C13.8325 21.6216 14.6814 21.8852 15.5491 21.875C16.4168 21.8647 17.2591 21.5811 17.9563 21.0644C18.6535 20.5477 19.17 19.8243 19.4323 18.9972C19.6946 18.17 19.6893 17.2812 19.4173 16.4572C19.1453 15.6331 18.6203 14.9159 17.9171 14.4075C17.2139 13.899 16.3683 13.6253 15.5005 13.6253ZM15.5005 2.37526C15.8714 2.37526 16.2339 2.48523 16.5422 2.69126C16.8506 2.89729 17.0909 3.19012 17.2328 3.53273C17.3747 3.87534 17.4118 4.25234 17.3395 4.61606C17.2671 4.97977 17.0886 5.31387 16.8263 5.57609C16.5641 5.83831 16.23 6.01689 15.8663 6.08924C15.5026 6.16158 15.1256 6.12445 14.783 5.98254C14.4404 5.84062 14.1475 5.6003 13.9415 5.29196C13.7355 4.98362 13.6255 4.6211 13.6255 4.25026C13.6255 3.75298 13.8231 3.27607 14.1747 2.92444C14.5263 2.57281 15.0032 2.37526 15.5005 2.37526ZM5.00052 12.8753C4.62968 12.8753 4.26717 12.7653 3.95883 12.5593C3.65049 12.3532 3.41016 12.0604 3.26825 11.7178C3.12633 11.3752 3.0892 10.9982 3.16155 10.6345C3.2339 10.2708 3.41247 9.93666 3.6747 9.67444C3.93692 9.41222 4.27101 9.23364 4.63473 9.16129C4.99844 9.08894 5.37544 9.12608 5.71805 9.26799C6.06067 9.4099 6.3535 9.65023 6.55953 9.95857C6.76556 10.2669 6.87552 10.6294 6.87552 11.0003C6.87552 11.4975 6.67798 11.9745 6.32635 12.3261C5.97472 12.6777 5.4978 12.8753 5.00052 12.8753ZM15.5005 19.6253C15.1297 19.6253 14.7672 19.5153 14.4588 19.3093C14.1505 19.1032 13.9102 18.8104 13.7682 18.4678C13.6263 18.1252 13.5892 17.7482 13.6615 17.3845C13.7339 17.0208 13.9125 16.6867 14.1747 16.4244C14.4369 16.1622 14.771 15.9836 15.1347 15.9113C15.4984 15.8389 15.8754 15.8761 16.2181 16.018C16.5607 16.1599 16.8535 16.4002 17.0595 16.7086C17.2656 17.0169 17.3755 17.3794 17.3755 17.7503C17.3755 18.2475 17.178 18.7245 16.8263 19.0761C16.4747 19.4277 15.9978 19.6253 15.5005 19.6253Z" fill="#FFA100"/>
</svg>
