<svg width="80" height="90" viewBox="0 0 80 90" fill="none" xmlns="http://www.w3.org/2000/svg">
<path d="M1.76092 43.2792C2.88878 44.381 4.41828 45 6.01307 45C7.60787 45 9.13737 44.381 10.2652 43.2792L40.0363 14.1866L69.8074 43.2792C70.9417 44.3498 72.461 44.9422 74.0379 44.9288C75.6149 44.9154 77.1233 44.2973 78.2384 43.2076C79.3536 42.1179 79.9861 40.6438 79.9998 39.1028C80.0135 37.5618 79.4073 36.0772 78.3117 34.9687L44.2885 1.72079C43.1606 0.61897 41.6311 0 40.0363 0C38.4415 0 36.912 0.61897 35.7842 1.72079L1.76092 34.9687C0.633405 36.0709 0 37.5655 0 39.124C0 40.6824 0.633405 42.177 1.76092 43.2792Z" fill="#121212"/>
<path d="M1.76092 88.2792C2.88878 89.381 4.41828 90 6.01307 90C7.60787 90 9.13737 89.381 10.2652 88.2792L40.0363 59.1866L69.8074 88.2792C70.9417 89.3498 72.461 89.9422 74.0379 89.9288C75.6149 89.9154 77.1233 89.2973 78.2384 88.2076C79.3536 87.1179 79.9861 85.6438 79.9998 84.1028C80.0135 82.5618 79.4073 81.0772 78.3117 79.9687L44.2885 46.7208C43.1606 45.619 41.6311 45 40.0363 45C38.4415 45 36.912 45.619 35.7842 46.7208L1.76092 79.9687C0.633405 81.0709 0 82.5655 0 84.124C0 85.6824 0.633405 87.177 1.76092 88.2792Z" fill="#121212"/>
</svg>
