<svg width="24" height="24" viewBox="0 0 24 24" fill="none" xmlns="http://www.w3.org/2000/svg">
<path d="M23.4944 21.0697C23.8163 21.3916 23.9971 21.8282 23.9971 22.2835C23.9971 22.7387 23.8163 23.1753 23.4944 23.4972C23.1724 23.8191 22.7358 24 22.2805 24C21.8252 24 21.3886 23.8191 21.0667 23.4972L12 14.4282L2.93047 23.4944C2.60854 23.8163 2.17191 23.9971 1.71663 23.9971C1.26135 23.9971 0.82472 23.8163 0.502789 23.4944C0.180859 23.1725 6.78418e-09 22.7359 0 22.2806C-6.78418e-09 21.8254 0.180859 21.3888 0.502789 21.0668L9.57232 12.0007L0.505645 2.93172C0.183715 2.60981 0.00285616 2.17321 0.00285616 1.71796C0.00285617 1.2627 0.183715 0.826098 0.505645 0.504187C0.827576 0.182276 1.26421 0.00142773 1.71949 0.00142772C2.17476 0.00142772 2.6114 0.182276 2.93333 0.504187L12 9.57318L21.0695 0.502759C21.3915 0.180848 21.8281 -7.58449e-09 22.2834 0C22.7386 7.58449e-09 23.1753 0.180848 23.4972 0.502759C23.8191 0.82467 24 1.26128 24 1.71653C24 2.17178 23.8191 2.60838 23.4972 2.9303L14.4277 12.0007L23.4944 21.0697Z" fill="#121212"/>
</svg>
